<svg width="404" height="76" viewBox="0 0 404 76" fill="none" xmlns="http://www.w3.org/2000/svg">
<rect x="1" y="0.5" width="402" height="75" rx="24.5" stroke="url(#paint0_linear_310_1247)"/>
<path d="M52.1665 36.3334H42.1665V26.3334C42.1665 25.8914 41.9909 25.4675 41.6783 25.1549C41.3658 24.8423 40.9419 24.6667 40.4998 24.6667C40.0578 24.6667 39.6339 24.8423 39.3213 25.1549C39.0088 25.4675 38.8332 25.8914 38.8332 26.3334V36.3334H28.8332C28.3911 36.3334 27.9672 36.509 27.6547 36.8216C27.3421 37.1341 27.1665 37.5581 27.1665 38.0001C27.1665 38.4421 27.3421 38.866 27.6547 39.1786C27.9672 39.4912 28.3911 39.6667 28.8332 39.6667H38.8332V49.6667C38.8332 50.1088 39.0088 50.5327 39.3213 50.8453C39.6339 51.1578 40.0578 51.3334 40.4998 51.3334C40.9419 51.3334 41.3658 51.1578 41.6783 50.8453C41.9909 50.5327 42.1665 50.1088 42.1665 49.6667V39.6667H52.1665C52.6085 39.6667 53.0325 39.4912 53.345 39.1786C53.6576 38.866 53.8332 38.4421 53.8332 38.0001C53.8332 37.5581 53.6576 37.1341 53.345 36.8216C53.0325 36.509 52.6085 36.3334 52.1665 36.3334Z" fill="url(#paint1_linear_310_1247)"/>
<path d="M98.708 45.48V53.768H94.868V49H77.204L77.172 53.768H73.332L73.364 45.48H76.084V36.296C76.084 34.1627 76.4893 32.3493 77.3 30.856C78.132 29.3627 79.2947 28.232 80.788 27.464C82.2813 26.6747 84.02 26.28 86.004 26.28C88.0093 26.28 89.7587 26.664 91.252 27.432C92.7453 28.2 93.8973 29.3413 94.708 30.856C95.54 32.3493 95.956 34.1627 95.956 36.296V45.48H98.708ZM91.796 45.48V35.912C91.796 33.9493 91.284 32.4667 90.26 31.464C89.236 30.44 87.8173 29.928 86.004 29.928C84.1907 29.928 82.772 30.44 81.748 31.464C80.7453 32.4667 80.244 33.9493 80.244 35.912V45.48H91.796ZM109.679 49.224C107.951 49.224 106.394 48.8507 105.007 48.104C103.62 47.3573 102.532 46.3227 101.743 45C100.975 43.656 100.591 42.1413 100.591 40.456C100.591 38.7707 100.975 37.2667 101.743 35.944C102.532 34.6213 103.62 33.5867 105.007 32.84C106.394 32.0933 107.951 31.72 109.679 31.72C111.428 31.72 112.996 32.0933 114.383 32.84C115.77 33.5867 116.847 34.6213 117.615 35.944C118.404 37.2667 118.799 38.7707 118.799 40.456C118.799 42.1413 118.404 43.656 117.615 45C116.847 46.3227 115.77 47.3573 114.383 48.104C112.996 48.8507 111.428 49.224 109.679 49.224ZM109.679 45.8C111.151 45.8 112.367 45.3093 113.327 44.328C114.287 43.3467 114.767 42.056 114.767 40.456C114.767 38.856 114.287 37.5653 113.327 36.584C112.367 35.6027 111.151 35.112 109.679 35.112C108.207 35.112 106.991 35.6027 106.031 36.584C105.092 37.5653 104.623 38.856 104.623 40.456C104.623 42.056 105.092 43.3467 106.031 44.328C106.991 45.3093 108.207 45.8 109.679 45.8ZM131.999 32.744C133.62 32.744 135.049 33.096 136.287 33.8C137.524 34.4827 138.484 35.4427 139.167 36.68C139.871 37.9173 140.223 39.336 140.223 40.936C140.223 42.5787 139.839 44.04 139.071 45.32C138.303 46.5787 137.225 47.56 135.839 48.264C134.452 48.968 132.873 49.32 131.103 49.32C128.137 49.32 125.844 48.3387 124.223 46.376C122.601 44.4133 121.791 41.5867 121.791 37.896C121.791 34.4613 122.527 31.7413 123.999 29.736C125.471 27.7307 127.721 26.408 130.751 25.768L138.687 24.072L139.263 27.656L132.063 29.128C129.993 29.5547 128.447 30.28 127.423 31.304C126.399 32.328 125.801 33.768 125.631 35.624C126.399 34.7067 127.327 34.0027 128.415 33.512C129.503 33 130.697 32.744 131.999 32.744ZM131.199 46.088C132.671 46.088 133.855 45.6187 134.751 44.68C135.668 43.72 136.127 42.504 136.127 41.032C136.127 39.56 135.668 38.376 134.751 37.48C133.855 36.584 132.671 36.136 131.199 36.136C129.705 36.136 128.5 36.584 127.583 37.48C126.665 38.376 126.207 39.56 126.207 41.032C126.207 42.5253 126.665 43.7413 127.583 44.68C128.521 45.6187 129.727 46.088 131.199 46.088ZM160.734 31.912V49H156.926V46.792C156.265 47.6027 155.444 48.2107 154.462 48.616C153.502 49.0213 152.436 49.224 151.262 49.224C149.598 49.224 148.105 48.8613 146.782 48.136C145.481 47.4107 144.457 46.3867 143.71 45.064C142.985 43.7413 142.622 42.2053 142.622 40.456C142.622 38.7067 142.985 37.1813 143.71 35.88C144.457 34.5573 145.481 33.5333 146.782 32.808C148.105 32.0827 149.598 31.72 151.262 31.72C152.372 31.72 153.385 31.912 154.302 32.296C155.241 32.68 156.052 33.2453 156.734 33.992V31.912H160.734ZM151.71 45.8C153.182 45.8 154.398 45.3093 155.358 44.328C156.318 43.3467 156.798 42.056 156.798 40.456C156.798 38.856 156.318 37.5653 155.358 36.584C154.398 35.6027 153.182 35.112 151.71 35.112C150.238 35.112 149.022 35.6027 148.062 36.584C147.124 37.5653 146.654 38.856 146.654 40.456C146.654 42.056 147.124 43.3467 148.062 44.328C149.022 45.3093 150.238 45.8 151.71 45.8ZM178.416 40.104C180.528 40.744 181.584 42.1093 181.584 44.2C181.584 45.736 181.008 46.92 179.856 47.752C178.704 48.584 176.997 49 174.736 49H166.032V31.912H174.384C176.474 31.912 178.106 32.296 179.28 33.064C180.453 33.832 181.04 34.92 181.04 36.328C181.04 37.2027 180.805 37.96 180.336 38.6C179.888 39.24 179.248 39.7413 178.416 40.104ZM169.84 39.048H174.032C176.101 39.048 177.136 38.3333 177.136 36.904C177.136 35.5173 176.101 34.824 174.032 34.824H169.84V39.048ZM174.416 46.088C176.613 46.088 177.712 45.3733 177.712 43.944C177.712 43.1973 177.456 42.6427 176.944 42.28C176.432 41.896 175.632 41.704 174.544 41.704H169.84V46.088H174.416ZM202.036 31.912V49H198.228V46.824C197.588 47.592 196.788 48.1893 195.828 48.616C194.89 49.0213 193.866 49.224 192.756 49.224C190.474 49.224 188.671 48.5947 187.348 47.336C186.026 46.056 185.364 44.168 185.364 41.672V31.912H189.364V41.128C189.364 42.664 189.706 43.816 190.388 44.584C191.092 45.3307 192.095 45.704 193.396 45.704C194.804 45.704 195.924 45.2667 196.756 44.392C197.61 43.496 198.036 42.216 198.036 40.552V31.912H202.036ZM229.006 31.72C231.161 31.72 232.867 32.3493 234.126 33.608C235.385 34.8453 236.014 36.712 236.014 39.208V49H232.014V39.72C232.014 38.2267 231.683 37.1067 231.022 36.36C230.361 35.592 229.411 35.208 228.174 35.208C226.83 35.208 225.753 35.656 224.942 36.552C224.131 37.4267 223.726 38.6853 223.726 40.328V49H219.726V39.72C219.726 38.2267 219.395 37.1067 218.734 36.36C218.073 35.592 217.123 35.208 215.886 35.208C214.521 35.208 213.433 35.6453 212.622 36.52C211.833 37.3947 211.438 38.664 211.438 40.328V49H207.438V31.912H211.246V34.088C211.886 33.32 212.686 32.7333 213.646 32.328C214.606 31.9227 215.673 31.72 216.846 31.72C218.126 31.72 219.257 31.9653 220.238 32.456C221.241 32.9253 222.03 33.6293 222.606 34.568C223.31 33.672 224.217 32.9787 225.326 32.488C226.435 31.976 227.662 31.72 229.006 31.72ZM248.394 49.448C245.855 49.448 243.914 48.8507 242.57 47.656C241.226 46.44 240.554 44.712 240.554 42.472V31.912H244.522V38.056C245.077 37.608 245.802 37.256 246.698 37C247.615 36.744 248.607 36.616 249.674 36.616C251.807 36.616 253.471 37.1493 254.666 38.216C255.861 39.2827 256.458 40.7973 256.458 42.76C256.458 44.872 255.743 46.5147 254.314 47.688C252.885 48.8613 250.911 49.448 248.394 49.448ZM248.426 46.504C249.642 46.504 250.602 46.1733 251.306 45.512C252.01 44.8507 252.362 43.9653 252.362 42.856C252.362 41.7893 252.021 40.9573 251.338 40.36C250.677 39.7413 249.738 39.432 248.522 39.432C247.605 39.432 246.794 39.6027 246.09 39.944C245.407 40.2853 244.885 40.7653 244.522 41.384V42.824C244.522 43.9547 244.874 44.8507 245.578 45.512C246.282 46.1733 247.231 46.504 248.426 46.504ZM290.444 31.72C292.598 31.72 294.305 32.3493 295.564 33.608C296.822 34.8453 297.452 36.712 297.452 39.208V49H293.452V39.72C293.452 38.2267 293.121 37.1067 292.46 36.36C291.798 35.592 290.849 35.208 289.612 35.208C288.268 35.208 287.19 35.656 286.38 36.552C285.569 37.4267 285.164 38.6853 285.164 40.328V49H281.164V39.72C281.164 38.2267 280.833 37.1067 280.172 36.36C279.51 35.592 278.561 35.208 277.324 35.208C275.958 35.208 274.87 35.6453 274.06 36.52C273.27 37.3947 272.876 38.664 272.876 40.328V49H268.876V31.912H272.684V34.088C273.324 33.32 274.124 32.7333 275.084 32.328C276.044 31.9227 277.11 31.72 278.284 31.72C279.564 31.72 280.694 31.9653 281.676 32.456C282.678 32.9253 283.468 33.6293 284.044 34.568C284.748 33.672 285.654 32.9787 286.764 32.488C287.873 31.976 289.1 31.72 290.444 31.72ZM309.992 49.224C308.264 49.224 306.706 48.8507 305.32 48.104C303.933 47.3573 302.845 46.3227 302.056 45C301.288 43.656 300.904 42.1413 300.904 40.456C300.904 38.7707 301.288 37.2667 302.056 35.944C302.845 34.6213 303.933 33.5867 305.32 32.84C306.706 32.0933 308.264 31.72 309.992 31.72C311.741 31.72 313.309 32.0933 314.696 32.84C316.082 33.5867 317.16 34.6213 317.928 35.944C318.717 37.2667 319.112 38.7707 319.112 40.456C319.112 42.1413 318.717 43.656 317.928 45C317.16 46.3227 316.082 47.3573 314.696 48.104C313.309 48.8507 311.741 49.224 309.992 49.224ZM309.992 45.8C311.464 45.8 312.68 45.3093 313.64 44.328C314.6 43.3467 315.08 42.056 315.08 40.456C315.08 38.856 314.6 37.5653 313.64 36.584C312.68 35.6027 311.464 35.112 309.992 35.112C308.52 35.112 307.304 35.6027 306.344 36.584C305.405 37.5653 304.936 38.856 304.936 40.456C304.936 42.056 305.405 43.3467 306.344 44.328C307.304 45.3093 308.52 45.8 309.992 45.8ZM335.447 40.104C337.559 40.744 338.615 42.1093 338.615 44.2C338.615 45.736 338.039 46.92 336.887 47.752C335.735 48.584 334.028 49 331.767 49H323.063V31.912H331.415C333.506 31.912 335.138 32.296 336.311 33.064C337.484 33.832 338.071 34.92 338.071 36.328C338.071 37.2027 337.836 37.96 337.367 38.6C336.919 39.24 336.279 39.7413 335.447 40.104ZM326.871 39.048H331.063C333.132 39.048 334.167 38.3333 334.167 36.904C334.167 35.5173 333.132 34.824 331.063 34.824H326.871V39.048ZM331.447 46.088C333.644 46.088 334.743 45.3733 334.743 43.944C334.743 43.1973 334.487 42.6427 333.975 42.28C333.463 41.896 332.663 41.704 331.575 41.704H326.871V46.088H331.447ZM359.516 31.912V49H355.708V46.792C355.046 47.6027 354.225 48.2107 353.244 48.616C352.284 49.0213 351.217 49.224 350.044 49.224C348.38 49.224 346.886 48.8613 345.564 48.136C344.262 47.4107 343.238 46.3867 342.492 45.064C341.766 43.7413 341.404 42.2053 341.404 40.456C341.404 38.7067 341.766 37.1813 342.492 35.88C343.238 34.5573 344.262 33.5333 345.564 32.808C346.886 32.0827 348.38 31.72 350.044 31.72C351.153 31.72 352.166 31.912 353.084 32.296C354.022 32.68 354.833 33.2453 355.516 33.992V31.912H359.516ZM350.492 45.8C351.964 45.8 353.18 45.3093 354.14 44.328C355.1 43.3467 355.58 42.056 355.58 40.456C355.58 38.856 355.1 37.5653 354.14 36.584C353.18 35.6027 351.964 35.112 350.492 35.112C349.02 35.112 347.804 35.6027 346.844 36.584C345.905 37.5653 345.436 38.856 345.436 40.456C345.436 42.056 345.905 43.3467 346.844 44.328C347.804 45.3093 349.02 45.8 350.492 45.8ZM373.261 31.72C375.032 31.72 376.578 32.0827 377.901 32.808C379.245 33.5333 380.28 34.5573 381.005 35.88C381.752 37.2027 382.125 38.7387 382.125 40.488C382.125 42.216 381.773 43.7413 381.069 45.064C380.365 46.3867 379.373 47.4107 378.093 48.136C376.834 48.8613 375.373 49.224 373.709 49.224C371.341 49.224 369.485 48.4667 368.141 46.952V55.208H364.109V40.52C364.109 38.792 364.493 37.2667 365.261 35.944C366.029 34.6 367.096 33.5653 368.461 32.84C369.848 32.0933 371.448 31.72 373.261 31.72ZM373.101 45.832C374.594 45.832 375.81 45.3413 376.749 44.36C377.688 43.3573 378.157 42.0667 378.157 40.488C378.157 38.9093 377.688 37.6187 376.749 36.616C375.81 35.6133 374.594 35.112 373.101 35.112C371.586 35.112 370.37 35.6027 369.453 36.584C368.536 37.5653 368.077 38.856 368.077 40.456C368.077 42.056 368.536 43.3573 369.453 44.36C370.392 45.3413 371.608 45.832 373.101 45.832Z" fill="url(#paint2_linear_310_1247)"/>
<defs>
<linearGradient id="paint0_linear_310_1247" x1="0.5" y1="38" x2="403.5" y2="38" gradientUnits="userSpaceOnUse">
<stop stop-color="#FF8964"/>
<stop offset="1" stop-color="#8F7AFF"/>
</linearGradient>
<linearGradient id="paint1_linear_310_1247" x1="27.1665" y1="38.0001" x2="53.8332" y2="38.0001" gradientUnits="userSpaceOnUse">
<stop stop-color="#FF8964"/>
<stop offset="1" stop-color="#8F7AFF"/>
</linearGradient>
<linearGradient id="paint2_linear_310_1247" x1="72.5" y1="38" x2="383.5" y2="38" gradientUnits="userSpaceOnUse">
<stop stop-color="#FF8964"/>
<stop offset="1" stop-color="#8F7AFF"/>
</linearGradient>
</defs>
</svg>
