<svg width="240" height="51" viewBox="0 0 240 51" fill="none" xmlns="http://www.w3.org/2000/svg">
<rect x="0.5" y="0.5" width="239" height="50" rx="19.5" stroke="url(#paint0_linear_150_1360)"/>
<path d="M36 24.5H30V18.5C30 18.2348 29.8946 17.9804 29.7071 17.7929C29.5196 17.6054 29.2652 17.5 29 17.5C28.7348 17.5 28.4804 17.6054 28.2929 17.7929C28.1054 17.9804 28 18.2348 28 18.5V24.5H22C21.7348 24.5 21.4804 24.6054 21.2929 24.7929C21.1054 24.9804 21 25.2348 21 25.5C21 25.7652 21.1054 26.0196 21.2929 26.2071C21.4804 26.3946 21.7348 26.5 22 26.5H28V32.5C28 32.7652 28.1054 33.0196 28.2929 33.2071C28.4804 33.3946 28.7348 33.5 29 33.5C29.2652 33.5 29.5196 33.3946 29.7071 33.2071C29.8946 33.0196 30 32.7652 30 32.5V26.5H36C36.2652 26.5 36.5196 26.3946 36.7071 26.2071C36.8946 26.0196 37 25.7652 37 25.5C37 25.2348 36.8946 24.9804 36.7071 24.7929C36.5196 24.6054 36.2652 24.5 36 24.5Z" fill="url(#paint1_linear_150_1360)"/>
<path d="M64.26 31.8V21.2H58.78L58.68 23.68C58.64 24.6133 58.58 25.5 58.5 26.34C58.4333 27.1667 58.32 27.92 58.16 28.6C58.0133 29.28 57.8067 29.8467 57.54 30.3C57.2733 30.7533 56.9467 31.0533 56.56 31.2L53.76 30.8C54.2667 30.8267 54.68 30.6533 55 30.28C55.3333 29.9067 55.5933 29.3867 55.78 28.72C55.9667 28.0533 56.1067 27.2733 56.2 26.38C56.2933 25.4733 56.36 24.4933 56.4 23.44L56.56 19H66.82V31.8H64.26ZM53.28 35.98L53.3 30.8H68.84V35.98H66.44V33H55.7V35.98H53.28ZM75.5923 33.14C74.499 33.14 73.5257 32.9067 72.6723 32.44C71.819 31.96 71.1457 31.3067 70.6523 30.48C70.159 29.6533 69.9123 28.7133 69.9123 27.66C69.9123 26.5933 70.159 25.6533 70.6523 24.84C71.1457 24.0133 71.819 23.3667 72.6723 22.9C73.5257 22.4333 74.499 22.2 75.5923 22.2C76.699 22.2 77.679 22.4333 78.5323 22.9C79.399 23.3667 80.0723 24.0067 80.5523 24.82C81.0457 25.6333 81.2923 26.58 81.2923 27.66C81.2923 28.7133 81.0457 29.6533 80.5523 30.48C80.0723 31.3067 79.399 31.96 78.5323 32.44C77.679 32.9067 76.699 33.14 75.5923 33.14ZM75.5923 31C76.2057 31 76.7523 30.8667 77.2323 30.6C77.7123 30.3333 78.0857 29.9467 78.3523 29.44C78.6323 28.9333 78.7723 28.34 78.7723 27.66C78.7723 26.9667 78.6323 26.3733 78.3523 25.88C78.0857 25.3733 77.7123 24.9867 77.2323 24.72C76.7523 24.4533 76.2123 24.32 75.6123 24.32C74.999 24.32 74.4523 24.4533 73.9723 24.72C73.5057 24.9867 73.1323 25.3733 72.8523 25.88C72.5723 26.3733 72.4323 26.9667 72.4323 27.66C72.4323 28.34 72.5723 28.9333 72.8523 29.44C73.1323 29.9467 73.5057 30.3333 73.9723 30.6C74.4523 30.8667 74.9923 31 75.5923 31ZM88.862 33.2C87.982 33.2 87.1954 33.0667 86.502 32.8C85.8087 32.5333 85.2087 32.1267 84.702 31.58C84.2087 31.02 83.8287 30.3133 83.562 29.46C83.2954 28.6067 83.162 27.5933 83.162 26.42C83.162 25.5667 83.2354 24.7867 83.382 24.08C83.5287 23.3733 83.7487 22.74 84.042 22.18C84.3354 21.6067 84.702 21.1 85.142 20.66C85.5954 20.22 86.122 19.8533 86.722 19.56C87.322 19.2667 88.002 19.04 88.762 18.88L93.722 17.82L94.082 20.06L89.582 20.98C89.3287 21.0333 89.022 21.1133 88.662 21.22C88.3154 21.3133 87.9554 21.46 87.582 21.66C87.222 21.8467 86.882 22.12 86.562 22.48C86.2554 22.8267 86.002 23.28 85.802 23.84C85.6154 24.3867 85.522 25.0733 85.522 25.9C85.522 26.1533 85.5287 26.3467 85.542 26.48C85.5687 26.6 85.5887 26.7333 85.602 26.88C85.6287 27.0133 85.642 27.2133 85.642 27.48L84.702 26.5C84.9687 25.82 85.3354 25.24 85.802 24.76C86.282 24.2667 86.8354 23.8933 87.462 23.64C88.102 23.3733 88.7954 23.24 89.542 23.24C90.542 23.24 91.4287 23.4467 92.202 23.86C92.9754 24.2733 93.582 24.8533 94.022 25.6C94.462 26.3467 94.682 27.1933 94.682 28.14C94.682 29.1267 94.442 30 93.962 30.76C93.482 31.52 92.802 32.12 91.922 32.56C91.0554 32.9867 90.0354 33.2 88.862 33.2ZM89.062 31.18C89.662 31.18 90.1887 31.0533 90.642 30.8C91.1087 30.5333 91.4687 30.1733 91.722 29.72C91.9887 29.2667 92.122 28.76 92.122 28.2C92.122 27.64 91.9887 27.1533 91.722 26.74C91.4687 26.3133 91.1087 25.9733 90.642 25.72C90.1887 25.4667 89.6487 25.34 89.022 25.34C88.422 25.34 87.882 25.46 87.402 25.7C86.9354 25.94 86.5687 26.2733 86.302 26.7C86.0487 27.1133 85.922 27.5933 85.922 28.14C85.922 28.7 86.0554 29.2133 86.322 29.68C86.5887 30.1467 86.9554 30.5133 87.422 30.78C87.902 31.0467 88.4487 31.18 89.062 31.18ZM103.445 33V30.84L103.305 30.38V26.6C103.305 25.8667 103.085 25.3 102.645 24.9C102.205 24.4867 101.538 24.28 100.645 24.28C100.045 24.28 99.4518 24.3733 98.8652 24.56C98.2918 24.7467 97.8052 25.0067 97.4052 25.34L96.4252 23.52C96.9985 23.08 97.6785 22.7533 98.4652 22.54C99.2652 22.3133 100.092 22.2 100.945 22.2C102.492 22.2 103.685 22.5733 104.525 23.32C105.378 24.0533 105.805 25.1933 105.805 26.74V33H103.445ZM100.085 33.14C99.2852 33.14 98.5852 33.0067 97.9852 32.74C97.3852 32.46 96.9185 32.08 96.5852 31.6C96.2652 31.1067 96.1052 30.5533 96.1052 29.94C96.1052 29.34 96.2452 28.8 96.5252 28.32C96.8185 27.84 97.2918 27.46 97.9452 27.18C98.5985 26.9 99.4652 26.76 100.545 26.76H103.645V28.42H100.725C99.8718 28.42 99.2985 28.56 99.0052 28.84C98.7118 29.1067 98.5652 29.44 98.5652 29.84C98.5652 30.2933 98.7452 30.6533 99.1052 30.92C99.4652 31.1867 99.9652 31.32 100.605 31.32C101.218 31.32 101.765 31.18 102.245 30.9C102.738 30.62 103.092 30.2067 103.305 29.66L103.725 31.16C103.485 31.7867 103.052 32.2733 102.425 32.62C101.812 32.9667 101.032 33.14 100.085 33.14ZM108.899 33V22.32H114.119C115.412 22.32 116.425 22.56 117.159 23.04C117.905 23.52 118.279 24.2 118.279 25.08C118.279 25.9467 117.932 26.6267 117.239 27.12C116.545 27.6 115.625 27.84 114.479 27.84L114.779 27.22C116.072 27.22 117.032 27.46 117.659 27.94C118.299 28.4067 118.619 29.0933 118.619 30C118.619 30.9467 118.265 31.6867 117.559 32.22C116.852 32.74 115.779 33 114.339 33H108.899ZM111.279 31.18H114.139C114.819 31.18 115.332 31.0733 115.679 30.86C116.025 30.6333 116.199 30.2933 116.199 29.84C116.199 29.36 116.039 29.0067 115.719 28.78C115.399 28.5533 114.899 28.44 114.219 28.44H111.279V31.18ZM111.279 26.78H113.899C114.539 26.78 115.019 26.6667 115.339 26.44C115.672 26.2 115.839 25.8667 115.839 25.44C115.839 25 115.672 24.6733 115.339 24.46C115.019 24.2467 114.539 24.14 113.899 24.14H111.279V26.78ZM121.282 33V22.32H123.782V29.36L129.682 22.32H131.962V33H129.462V25.96L123.582 33H121.282ZM137.545 33V23.84L138.125 24.44H133.785V22.32H143.785V24.44H139.465L140.045 23.84V33H137.545ZM150.958 25.84C152.331 25.84 153.378 26.1467 154.098 26.76C154.818 27.3733 155.178 28.24 155.178 29.36C155.178 30.52 154.778 31.4267 153.978 32.08C153.178 32.72 152.051 33.0333 150.598 33.02L145.598 33V22.32H148.098V25.82L150.958 25.84ZM150.378 31.18C151.111 31.1933 151.671 31.04 152.058 30.72C152.445 30.4 152.638 29.9333 152.638 29.32C152.638 28.7067 152.445 28.2667 152.058 28C151.685 27.72 151.125 27.5733 150.378 27.56L148.098 27.54V31.16L150.378 31.18ZM165.123 33V23.84L165.703 24.44H161.363V22.32H171.363V24.44H167.043L167.623 23.84V33H165.123ZM177.467 33.14C176.374 33.14 175.401 32.9067 174.547 32.44C173.694 31.96 173.021 31.3067 172.527 30.48C172.034 29.6533 171.787 28.7133 171.787 27.66C171.787 26.5933 172.034 25.6533 172.527 24.84C173.021 24.0133 173.694 23.3667 174.547 22.9C175.401 22.4333 176.374 22.2 177.467 22.2C178.574 22.2 179.554 22.4333 180.407 22.9C181.274 23.3667 181.947 24.0067 182.427 24.82C182.921 25.6333 183.167 26.58 183.167 27.66C183.167 28.7133 182.921 29.6533 182.427 30.48C181.947 31.3067 181.274 31.96 180.407 32.44C179.554 32.9067 178.574 33.14 177.467 33.14ZM177.467 31C178.081 31 178.627 30.8667 179.107 30.6C179.587 30.3333 179.961 29.9467 180.227 29.44C180.507 28.9333 180.647 28.34 180.647 27.66C180.647 26.9667 180.507 26.3733 180.227 25.88C179.961 25.3733 179.587 24.9867 179.107 24.72C178.627 24.4533 178.087 24.32 177.487 24.32C176.874 24.32 176.327 24.4533 175.847 24.72C175.381 24.9867 175.007 25.3733 174.727 25.88C174.447 26.3733 174.307 26.9667 174.307 27.66C174.307 28.34 174.447 28.9333 174.727 29.44C175.007 29.9467 175.381 30.3333 175.847 30.6C176.327 30.8667 176.867 31 177.467 31ZM185.637 33V22.32H190.857C192.15 22.32 193.164 22.56 193.897 23.04C194.644 23.52 195.017 24.2 195.017 25.08C195.017 25.9467 194.67 26.6267 193.977 27.12C193.284 27.6 192.364 27.84 191.217 27.84L191.517 27.22C192.81 27.22 193.77 27.46 194.397 27.94C195.037 28.4067 195.357 29.0933 195.357 30C195.357 30.9467 195.004 31.6867 194.297 32.22C193.59 32.74 192.517 33 191.077 33H185.637ZM188.017 31.18H190.877C191.557 31.18 192.07 31.0733 192.417 30.86C192.764 30.6333 192.937 30.2933 192.937 29.84C192.937 29.36 192.777 29.0067 192.457 28.78C192.137 28.5533 191.637 28.44 190.957 28.44H188.017V31.18ZM188.017 26.78H190.637C191.277 26.78 191.757 26.6667 192.077 26.44C192.41 26.2 192.577 25.8667 192.577 25.44C192.577 25 192.41 24.6733 192.077 24.46C191.757 24.2467 191.277 24.14 190.637 24.14H188.017V26.78ZM204.5 33V30.84L204.36 30.38V26.6C204.36 25.8667 204.14 25.3 203.7 24.9C203.26 24.4867 202.593 24.28 201.7 24.28C201.1 24.28 200.507 24.3733 199.92 24.56C199.347 24.7467 198.86 25.0067 198.46 25.34L197.48 23.52C198.053 23.08 198.733 22.7533 199.52 22.54C200.32 22.3133 201.147 22.2 202 22.2C203.547 22.2 204.74 22.5733 205.58 23.32C206.433 24.0533 206.86 25.1933 206.86 26.74V33H204.5ZM201.14 33.14C200.34 33.14 199.64 33.0067 199.04 32.74C198.44 32.46 197.973 32.08 197.64 31.6C197.32 31.1067 197.16 30.5533 197.16 29.94C197.16 29.34 197.3 28.8 197.58 28.32C197.873 27.84 198.347 27.46 199 27.18C199.653 26.9 200.52 26.76 201.6 26.76H204.7V28.42H201.78C200.927 28.42 200.353 28.56 200.06 28.84C199.767 29.1067 199.62 29.44 199.62 29.84C199.62 30.2933 199.8 30.6533 200.16 30.92C200.52 31.1867 201.02 31.32 201.66 31.32C202.273 31.32 202.82 31.18 203.3 30.9C203.793 30.62 204.147 30.2067 204.36 29.66L204.78 31.16C204.54 31.7867 204.107 32.2733 203.48 32.62C202.867 32.9667 202.087 33.14 201.14 33.14ZM215.873 33.14C215.007 33.14 214.213 32.94 213.493 32.54C212.787 32.14 212.22 31.54 211.793 30.74C211.38 29.9267 211.173 28.9 211.173 27.66C211.173 26.4067 211.373 25.38 211.773 24.58C212.187 23.78 212.747 23.1867 213.453 22.8C214.16 22.4 214.967 22.2 215.873 22.2C216.927 22.2 217.853 22.4267 218.653 22.88C219.467 23.3333 220.107 23.9667 220.573 24.78C221.053 25.5933 221.293 26.5533 221.293 27.66C221.293 28.7667 221.053 29.7333 220.573 30.56C220.107 31.3733 219.467 32.0067 218.653 32.46C217.853 32.9133 216.927 33.14 215.873 33.14ZM209.953 36.88V22.32H212.333V24.84L212.253 27.68L212.453 30.52V36.88H209.953ZM215.593 31C216.193 31 216.727 30.8667 217.193 30.6C217.673 30.3333 218.053 29.9467 218.333 29.44C218.613 28.9333 218.753 28.34 218.753 27.66C218.753 26.9667 218.613 26.3733 218.333 25.88C218.053 25.3733 217.673 24.9867 217.193 24.72C216.727 24.4533 216.193 24.32 215.593 24.32C214.993 24.32 214.453 24.4533 213.973 24.72C213.493 24.9867 213.113 25.3733 212.833 25.88C212.553 26.3733 212.413 26.9667 212.413 27.66C212.413 28.34 212.553 28.9333 212.833 29.44C213.113 29.9467 213.493 30.3333 213.973 30.6C214.453 30.8667 214.993 31 215.593 31Z" fill="url(#paint2_linear_150_1360)"/>
<defs>
<linearGradient id="paint0_linear_150_1360" x1="0" y1="25.5" x2="240" y2="25.5" gradientUnits="userSpaceOnUse">
<stop stop-color="#FF8964"/>
<stop offset="1" stop-color="#8F7AFF"/>
</linearGradient>
<linearGradient id="paint1_linear_150_1360" x1="21" y1="25.5" x2="37" y2="25.5" gradientUnits="userSpaceOnUse">
<stop stop-color="#FF8964"/>
<stop offset="1" stop-color="#8F7AFF"/>
</linearGradient>
<linearGradient id="paint2_linear_150_1360" x1="53" y1="25.5" x2="223" y2="25.5" gradientUnits="userSpaceOnUse">
<stop stop-color="#FF8964"/>
<stop offset="1" stop-color="#8F7AFF"/>
</linearGradient>
</defs>
</svg>
