<svg width="495" height="60" viewBox="0 0 495 60" fill="none" xmlns="http://www.w3.org/2000/svg">
<path d="M4.24 55.58C3.45067 55.58 2.84267 55.3667 2.416 54.94C1.98933 54.5133 1.776 53.9107 1.776 53.132V45.244H2.912V53.068C2.912 53.5587 3.03467 53.9373 3.28 54.204C3.536 54.4707 3.89867 54.604 4.368 54.604C4.86933 54.604 5.28533 54.46 5.616 54.172L6.016 54.988C5.792 55.1907 5.52 55.34 5.2 55.436C4.89067 55.532 4.57067 55.58 4.24 55.58ZM0.272 48.044V47.1H5.472V48.044H0.272ZM11.0511 58.684C10.2831 58.684 9.54713 58.572 8.84312 58.348C8.13912 58.124 7.56846 57.804 7.13112 57.388L7.70712 56.524C8.10179 56.876 8.58712 57.1533 9.16313 57.356C9.74979 57.5693 10.3685 57.676 11.0191 57.676C12.0858 57.676 12.8698 57.4253 13.3711 56.924C13.8725 56.4333 14.1231 55.6653 14.1231 54.62V52.524L14.2831 51.084L14.1711 49.644V47.1H15.2591V54.476C15.2591 55.9267 14.9018 56.988 14.1871 57.66C13.4831 58.3427 12.4378 58.684 11.0511 58.684ZM10.8431 55.18C10.0431 55.18 9.32313 55.0093 8.68313 54.668C8.04312 54.316 7.53646 53.8307 7.16312 53.212C6.80046 52.5933 6.61912 51.884 6.61912 51.084C6.61912 50.284 6.80046 49.58 7.16312 48.972C7.53646 48.3533 8.04312 47.8733 8.68313 47.532C9.32313 47.1907 10.0431 47.02 10.8431 47.02C11.5898 47.02 12.2618 47.1747 12.8591 47.484C13.4565 47.7933 13.9311 48.252 14.2831 48.86C14.6351 49.468 14.8111 50.2093 14.8111 51.084C14.8111 51.9587 14.6351 52.7 14.2831 53.308C13.9311 53.916 13.4565 54.38 12.8591 54.7C12.2618 55.02 11.5898 55.18 10.8431 55.18ZM10.9551 54.172C11.5738 54.172 12.1231 54.044 12.6031 53.788C13.0831 53.5213 13.4618 53.1587 13.7391 52.7C14.0165 52.2307 14.1551 51.692 14.1551 51.084C14.1551 50.476 14.0165 49.9427 13.7391 49.484C13.4618 49.0253 13.0831 48.668 12.6031 48.412C12.1231 48.1453 11.5738 48.012 10.9551 48.012C10.3471 48.012 9.79779 48.1453 9.30713 48.412C8.82713 48.668 8.44846 49.0253 8.17112 49.484C7.90446 49.9427 7.77112 50.476 7.77112 51.084C7.77112 51.692 7.90446 52.2307 8.17112 52.7C8.44846 53.1587 8.82713 53.5213 9.30713 53.788C9.79779 54.044 10.3471 54.172 10.9551 54.172ZM18.2123 48.764C17.9776 48.764 17.7749 48.6787 17.6043 48.508C17.4443 48.3373 17.3643 48.1293 17.3643 47.884C17.3643 47.628 17.4443 47.42 17.6043 47.26C17.7749 47.1 17.9776 47.02 18.2123 47.02C18.4469 47.02 18.6443 47.1 18.8043 47.26C18.9749 47.42 19.0603 47.628 19.0603 47.884C19.0603 48.1293 18.9749 48.3373 18.8043 48.508C18.6443 48.6787 18.4469 48.764 18.2123 48.764ZM18.2123 55.58C17.9776 55.58 17.7749 55.4947 17.6043 55.324C17.4443 55.1533 17.3643 54.9453 17.3643 54.7C17.3643 54.444 17.4443 54.236 17.6043 54.076C17.7749 53.916 17.9776 53.836 18.2123 53.836C18.4469 53.836 18.6443 53.916 18.8043 54.076C18.9749 54.236 19.0603 54.444 19.0603 54.7C19.0603 54.9453 18.9749 55.1533 18.8043 55.324C18.6443 55.4947 18.4469 55.58 18.2123 55.58Z" fill="#8A8989"/>
<path d="M52.88 10.724H58.8V11.748H52.88V10.724ZM53.008 16.5H51.824V5.3H59.504V6.324H53.008V16.5ZM61.2328 16.5V8.1H62.3208V10.388L62.2088 9.988C62.4434 9.348 62.8381 8.86267 63.3928 8.532C63.9474 8.19067 64.6354 8.02 65.4568 8.02V9.124C65.4141 9.124 65.3714 9.124 65.3288 9.124C65.2861 9.11333 65.2434 9.108 65.2008 9.108C64.3154 9.108 63.6221 9.38 63.1208 9.924C62.6194 10.4573 62.3688 11.22 62.3688 12.212V16.5H61.2328ZM70.5555 16.58C69.7448 16.58 69.0142 16.3987 68.3635 16.036C67.7235 15.6627 67.2168 15.156 66.8435 14.516C66.4702 13.8653 66.2835 13.124 66.2835 12.292C66.2835 11.4493 66.4702 10.708 66.8435 10.068C67.2168 9.428 67.7235 8.92667 68.3635 8.564C69.0035 8.20133 69.7342 8.02 70.5555 8.02C71.3875 8.02 72.1235 8.20133 72.7635 8.564C73.4142 8.92667 73.9208 9.428 74.2835 10.068C74.6568 10.708 74.8435 11.4493 74.8435 12.292C74.8435 13.124 74.6568 13.8653 74.2835 14.516C73.9208 15.156 73.4142 15.6627 72.7635 16.036C72.1128 16.3987 71.3768 16.58 70.5555 16.58ZM70.5555 15.572C71.1635 15.572 71.7022 15.4387 72.1715 15.172C72.6408 14.8947 73.0088 14.5107 73.2755 14.02C73.5528 13.5187 73.6915 12.9427 73.6915 12.292C73.6915 11.6307 73.5528 11.0547 73.2755 10.564C73.0088 10.0733 72.6408 9.69467 72.1715 9.428C71.7022 9.15067 71.1688 9.012 70.5715 9.012C69.9742 9.012 69.4408 9.15067 68.9715 9.428C68.5022 9.69467 68.1288 10.0733 67.8515 10.564C67.5742 11.0547 67.4355 11.6307 67.4355 12.292C67.4355 12.9427 67.5742 13.5187 67.8515 14.02C68.1288 14.5107 68.5022 14.8947 68.9715 15.172C69.4408 15.4387 69.9688 15.572 70.5555 15.572ZM81.1308 8.02C81.8134 8.02 82.4108 8.15333 82.9228 8.42C83.4454 8.676 83.8508 9.07067 84.1388 9.604C84.4374 10.1373 84.5868 10.8093 84.5868 11.62V16.5H83.4508V11.732C83.4508 10.8467 83.2268 10.18 82.7788 9.732C82.3414 9.27333 81.7228 9.044 80.9228 9.044C80.3254 9.044 79.8028 9.16667 79.3548 9.412C78.9174 9.64667 78.5761 9.99333 78.3308 10.452C78.0961 10.9 77.9788 11.444 77.9788 12.084V16.5H76.8428V8.1H77.9308V10.404L77.7548 9.972C78.0214 9.364 78.4481 8.88933 79.0348 8.548C79.6214 8.196 80.3201 8.02 81.1308 8.02ZM89.9913 16.58C89.2019 16.58 88.5939 16.3667 88.1673 15.94C87.7406 15.5133 87.5273 14.9107 87.5273 14.132V6.244H88.6633V14.068C88.6633 14.5587 88.7859 14.9373 89.0313 15.204C89.2873 15.4707 89.6499 15.604 90.1193 15.604C90.6206 15.604 91.0366 15.46 91.3673 15.172L91.7673 15.988C91.5433 16.1907 91.2713 16.34 90.9513 16.436C90.6419 16.532 90.3219 16.58 89.9913 16.58ZM86.0233 9.044V8.1H91.2233V9.044H86.0233ZM96.7864 16.58C95.9117 16.58 95.1437 16.3987 94.4824 16.036C93.821 15.6627 93.3037 15.156 92.9304 14.516C92.557 13.8653 92.3704 13.124 92.3704 12.292C92.3704 11.46 92.5464 10.724 92.8984 10.084C93.261 9.444 93.7517 8.94267 94.3704 8.58C94.9997 8.20667 95.7037 8.02 96.4824 8.02C97.2717 8.02 97.9704 8.20133 98.5784 8.564C99.197 8.916 99.6824 9.41733 100.034 10.068C100.386 10.708 100.562 11.4493 100.562 12.292C100.562 12.3453 100.557 12.404 100.546 12.468C100.546 12.5213 100.546 12.58 100.546 12.644H93.2344V11.796H99.9384L99.4904 12.132C99.4904 11.524 99.357 10.9853 99.0904 10.516C98.8344 10.036 98.4824 9.66267 98.0344 9.396C97.5864 9.12933 97.069 8.996 96.4824 8.996C95.9064 8.996 95.389 9.12933 94.9304 9.396C94.4717 9.66267 94.1144 10.036 93.8584 10.516C93.6024 10.996 93.4744 11.5453 93.4744 12.164V12.34C93.4744 12.98 93.613 13.5453 93.8904 14.036C94.1784 14.516 94.573 14.8947 95.0744 15.172C95.5864 15.4387 96.1677 15.572 96.8184 15.572C97.3304 15.572 97.805 15.4813 98.2424 15.3C98.6904 15.1187 99.0744 14.8413 99.3944 14.468L100.034 15.204C99.661 15.652 99.1917 15.9933 98.6264 16.228C98.0717 16.4627 97.4584 16.58 96.7864 16.58ZM106.843 8.02C107.525 8.02 108.123 8.15333 108.635 8.42C109.157 8.676 109.563 9.07067 109.851 9.604C110.149 10.1373 110.299 10.8093 110.299 11.62V16.5H109.163V11.732C109.163 10.8467 108.939 10.18 108.491 9.732C108.053 9.27333 107.435 9.044 106.635 9.044C106.037 9.044 105.515 9.16667 105.067 9.412C104.629 9.64667 104.288 9.99333 104.043 10.452C103.808 10.9 103.691 11.444 103.691 12.084V16.5H102.555V8.1H103.643V10.404L103.467 9.972C103.733 9.364 104.16 8.88933 104.747 8.548C105.333 8.196 106.032 8.02 106.843 8.02ZM116.391 16.58C115.591 16.58 114.871 16.3987 114.231 16.036C113.602 15.6733 113.106 15.172 112.743 14.532C112.38 13.8813 112.199 13.1347 112.199 12.292C112.199 11.4387 112.38 10.692 112.743 10.052C113.106 9.412 113.602 8.916 114.231 8.564C114.871 8.20133 115.591 8.02 116.391 8.02C117.127 8.02 117.783 8.18533 118.359 8.516C118.946 8.84667 119.41 9.332 119.751 9.972C120.103 10.6013 120.279 11.3747 120.279 12.292C120.279 13.1987 120.108 13.972 119.767 14.612C119.426 15.252 118.962 15.7427 118.375 16.084C117.799 16.4147 117.138 16.58 116.391 16.58ZM116.471 15.572C117.068 15.572 117.602 15.4387 118.071 15.172C118.551 14.8947 118.924 14.5107 119.191 14.02C119.468 13.5187 119.607 12.9427 119.607 12.292C119.607 11.6307 119.468 11.0547 119.191 10.564C118.924 10.0733 118.551 9.69467 118.071 9.428C117.602 9.15067 117.068 9.012 116.471 9.012C115.884 9.012 115.356 9.15067 114.887 9.428C114.418 9.69467 114.044 10.0733 113.767 10.564C113.49 11.0547 113.351 11.6307 113.351 12.292C113.351 12.9427 113.49 13.5187 113.767 14.02C114.044 14.5107 114.418 14.8947 114.887 15.172C115.356 15.4387 115.884 15.572 116.471 15.572ZM119.639 16.5V13.972L119.751 12.276L119.591 10.58V4.628H120.727V16.5H119.639Z" fill="#8A8989"/>
<path d="M62.36 58.3C60.712 58.3 59.208 58.028 57.848 57.484C56.488 56.956 55.312 56.204 54.32 55.228C53.344 54.268 52.584 53.124 52.04 51.796C51.512 50.452 51.248 48.988 51.248 47.404C51.248 45.804 51.512 44.348 52.04 43.036C52.584 41.708 53.352 40.564 54.344 39.604C55.352 38.628 56.544 37.876 57.92 37.348C59.296 36.82 60.808 36.556 62.456 36.556C64.088 36.556 65.576 36.812 66.92 37.324C68.28 37.836 69.456 38.564 70.448 39.508C71.44 40.436 72.2 41.548 72.728 42.844C73.272 44.14 73.544 45.572 73.544 47.14C73.544 48.484 73.384 49.644 73.064 50.62C72.76 51.58 72.312 52.324 71.72 52.852C71.128 53.364 70.416 53.62 69.584 53.62C68.768 53.62 68.112 53.372 67.616 52.876C67.12 52.38 66.872 51.684 66.872 50.788V48.892L67.064 47.356L66.824 44.956V41.332H68.384V50.428C68.384 51.1 68.528 51.572 68.816 51.844C69.104 52.116 69.456 52.252 69.872 52.252C70.368 52.252 70.8 52.052 71.168 51.652C71.536 51.252 71.816 50.676 72.008 49.924C72.216 49.156 72.32 48.236 72.32 47.164C72.32 45.756 72.08 44.476 71.6 43.324C71.12 42.172 70.44 41.18 69.56 40.348C68.68 39.516 67.64 38.884 66.44 38.452C65.24 38.004 63.912 37.78 62.456 37.78C61 37.78 59.664 38.012 58.448 38.476C57.232 38.94 56.184 39.604 55.304 40.468C54.44 41.316 53.768 42.332 53.288 43.516C52.808 44.684 52.568 45.98 52.568 47.404C52.568 48.828 52.8 50.132 53.264 51.316C53.744 52.5 54.416 53.516 55.28 54.364C56.144 55.228 57.176 55.892 58.376 56.356C59.576 56.836 60.904 57.076 62.36 57.076C63.08 57.076 63.848 56.988 64.664 56.812C65.496 56.636 66.264 56.372 66.968 56.02L67.376 57.196C66.656 57.564 65.84 57.836 64.928 58.012C64.016 58.204 63.16 58.3 62.36 58.3ZM62.072 53.62C60.936 53.62 59.92 53.356 59.024 52.828C58.128 52.284 57.416 51.548 56.888 50.62C56.376 49.676 56.12 48.604 56.12 47.404C56.12 46.204 56.376 45.14 56.888 44.212C57.416 43.284 58.128 42.556 59.024 42.028C59.92 41.5 60.936 41.236 62.072 41.236C63.176 41.236 64.152 41.484 65 41.98C65.864 42.476 66.536 43.188 67.016 44.116C67.512 45.028 67.76 46.124 67.76 47.404C67.76 48.684 67.512 49.788 67.016 50.716C66.536 51.644 65.872 52.364 65.024 52.876C64.176 53.372 63.192 53.62 62.072 53.62ZM62.288 52.228C63.152 52.228 63.928 52.028 64.616 51.628C65.32 51.228 65.864 50.668 66.248 49.948C66.648 49.212 66.848 48.364 66.848 47.404C66.848 46.428 66.648 45.588 66.248 44.884C65.864 44.164 65.32 43.612 64.616 43.228C63.928 42.828 63.152 42.628 62.288 42.628C61.392 42.628 60.6 42.828 59.912 43.228C59.224 43.612 58.68 44.164 58.28 44.884C57.896 45.604 57.704 46.444 57.704 47.404C57.704 48.364 57.896 49.204 58.28 49.924C58.68 50.644 59.224 51.212 59.912 51.628C60.6 52.028 61.392 52.228 62.288 52.228ZM83.1249 40.78C84.1489 40.78 85.0449 40.98 85.8129 41.38C86.5969 41.764 87.2049 42.356 87.6369 43.156C88.0849 43.956 88.3089 44.964 88.3089 46.18V53.5H86.6049V46.348C86.6049 45.02 86.2689 44.02 85.5969 43.348C84.9409 42.66 84.0129 42.316 82.8129 42.316C81.9169 42.316 81.1329 42.5 80.4609 42.868C79.8049 43.22 79.2929 43.74 78.9249 44.428C78.5729 45.1 78.3969 45.916 78.3969 46.876V53.5H76.6929V40.9H78.3249V44.356L78.0609 43.708C78.4609 42.796 79.1009 42.084 79.9809 41.572C80.8609 41.044 81.9089 40.78 83.1249 40.78ZM97.5676 53.62C96.3516 53.62 95.2556 53.348 94.2796 52.804C93.3196 52.244 92.5596 51.484 91.9996 50.524C91.4396 49.548 91.1596 48.436 91.1596 47.188C91.1596 45.924 91.4396 44.812 91.9996 43.852C92.5596 42.892 93.3196 42.14 94.2796 41.596C95.2396 41.052 96.3356 40.78 97.5676 40.78C98.8156 40.78 99.9196 41.052 100.88 41.596C101.856 42.14 102.616 42.892 103.16 43.852C103.72 44.812 104 45.924 104 47.188C104 48.436 103.72 49.548 103.16 50.524C102.616 51.484 101.856 52.244 100.88 52.804C99.9036 53.348 98.7996 53.62 97.5676 53.62ZM97.5676 52.108C98.4796 52.108 99.2876 51.908 99.9916 51.508C100.696 51.092 101.248 50.516 101.648 49.78C102.064 49.028 102.272 48.164 102.272 47.188C102.272 46.196 102.064 45.332 101.648 44.596C101.248 43.86 100.696 43.292 99.9916 42.892C99.2876 42.476 98.4876 42.268 97.5916 42.268C96.6956 42.268 95.8956 42.476 95.1916 42.892C94.4876 43.292 93.9276 43.86 93.5116 44.596C93.0956 45.332 92.8876 46.196 92.8876 47.188C92.8876 48.164 93.0956 49.028 93.5116 49.78C93.9276 50.516 94.4876 51.092 95.1916 51.508C95.8956 51.908 96.6876 52.108 97.5676 52.108ZM122.743 40.78C123.767 40.78 124.655 40.98 125.407 41.38C126.175 41.764 126.767 42.356 127.183 43.156C127.615 43.956 127.831 44.964 127.831 46.18V53.5H126.127V46.348C126.127 45.02 125.807 44.02 125.167 43.348C124.543 42.66 123.655 42.316 122.503 42.316C121.639 42.316 120.887 42.5 120.247 42.868C119.623 43.22 119.135 43.74 118.783 44.428C118.447 45.1 118.279 45.916 118.279 46.876V53.5H116.575V46.348C116.575 45.02 116.255 44.02 115.615 43.348C114.975 42.66 114.079 42.316 112.927 42.316C112.079 42.316 111.335 42.5 110.695 42.868C110.055 43.22 109.559 43.74 109.207 44.428C108.871 45.1 108.703 45.916 108.703 46.876V53.5H106.999V40.9H108.631V44.308L108.367 43.708C108.751 42.796 109.367 42.084 110.215 41.572C111.079 41.044 112.095 40.78 113.263 40.78C114.495 40.78 115.543 41.092 116.407 41.716C117.271 42.324 117.831 43.244 118.087 44.476L117.415 44.212C117.783 43.188 118.431 42.364 119.359 41.74C120.303 41.1 121.431 40.78 122.743 40.78ZM139.868 53.5V50.716L139.796 50.26V45.604C139.796 44.532 139.492 43.708 138.884 43.132C138.292 42.556 137.404 42.268 136.22 42.268C135.404 42.268 134.628 42.404 133.892 42.676C133.156 42.948 132.532 43.308 132.02 43.756L131.252 42.484C131.892 41.94 132.66 41.524 133.556 41.236C134.452 40.932 135.396 40.78 136.388 40.78C138.02 40.78 139.276 41.188 140.156 42.004C141.052 42.804 141.5 44.028 141.5 45.676V53.5H139.868ZM135.524 53.62C134.58 53.62 133.756 53.468 133.052 53.164C132.364 52.844 131.836 52.412 131.468 51.868C131.1 51.308 130.916 50.668 130.916 49.948C130.916 49.292 131.068 48.7 131.372 48.172C131.692 47.628 132.204 47.196 132.908 46.876C133.628 46.54 134.588 46.372 135.788 46.372H140.132V47.644H135.836C134.62 47.644 133.772 47.86 133.292 48.292C132.828 48.724 132.596 49.26 132.596 49.9C132.596 50.62 132.876 51.196 133.436 51.628C133.996 52.06 134.78 52.276 135.788 52.276C136.748 52.276 137.572 52.06 138.26 51.628C138.964 51.18 139.476 50.54 139.796 49.708L140.18 50.884C139.86 51.716 139.3 52.38 138.5 52.876C137.716 53.372 136.724 53.62 135.524 53.62ZM149.632 53.62C148.448 53.62 147.536 53.3 146.896 52.66C146.256 52.02 145.936 51.116 145.936 49.948V38.116H147.64V49.852C147.64 50.588 147.824 51.156 148.192 51.556C148.576 51.956 149.12 52.156 149.824 52.156C150.576 52.156 151.2 51.94 151.696 51.508L152.296 52.732C151.96 53.036 151.552 53.26 151.072 53.404C150.608 53.548 150.128 53.62 149.632 53.62ZM143.68 42.316V40.9H151.48V42.316H143.68ZM158.574 53.62C157.39 53.62 156.478 53.3 155.838 52.66C155.198 52.02 154.878 51.116 154.878 49.948V38.116H156.582V49.852C156.582 50.588 156.766 51.156 157.134 51.556C157.518 51.956 158.062 52.156 158.766 52.156C159.518 52.156 160.142 51.94 160.638 51.508L161.238 52.732C160.902 53.036 160.494 53.26 160.014 53.404C159.55 53.548 159.07 53.62 158.574 53.62ZM152.622 42.316V40.9H160.422V42.316H152.622ZM168.766 53.62C167.454 53.62 166.302 53.348 165.31 52.804C164.318 52.244 163.542 51.484 162.982 50.524C162.422 49.548 162.142 48.436 162.142 47.188C162.142 45.94 162.406 44.836 162.934 43.876C163.478 42.916 164.214 42.164 165.142 41.62C166.086 41.06 167.142 40.78 168.31 40.78C169.494 40.78 170.542 41.052 171.454 41.596C172.382 42.124 173.11 42.876 173.638 43.852C174.166 44.812 174.43 45.924 174.43 47.188C174.43 47.268 174.422 47.356 174.406 47.452C174.406 47.532 174.406 47.62 174.406 47.716H163.438V46.444H173.494L172.822 46.948C172.822 46.036 172.622 45.228 172.222 44.524C171.838 43.804 171.31 43.244 170.638 42.844C169.966 42.444 169.19 42.244 168.31 42.244C167.446 42.244 166.67 42.444 165.982 42.844C165.294 43.244 164.758 43.804 164.374 44.524C163.99 45.244 163.798 46.068 163.798 46.996V47.26C163.798 48.22 164.006 49.068 164.422 49.804C164.854 50.524 165.446 51.092 166.198 51.508C166.966 51.908 167.838 52.108 168.814 52.108C169.582 52.108 170.294 51.972 170.95 51.7C171.622 51.428 172.198 51.012 172.678 50.452L173.638 51.556C173.078 52.228 172.374 52.74 171.526 53.092C170.694 53.444 169.774 53.62 168.766 53.62ZM177.419 53.5V40.9H179.051V44.332L178.883 43.732C179.235 42.772 179.827 42.044 180.659 41.548C181.491 41.036 182.523 40.78 183.755 40.78V42.436C183.691 42.436 183.627 42.436 183.563 42.436C183.499 42.42 183.435 42.412 183.371 42.412C182.043 42.412 181.003 42.82 180.251 43.636C179.499 44.436 179.123 45.58 179.123 47.068V53.5H177.419ZM188.911 53.5L196.159 37.468L196.687 38.236H186.295L187.183 37.396V41.38H185.479V36.7H197.815V37.924L190.783 53.5H188.911ZM202.774 53.5V37.42L203.542 38.236H198.814V36.7H204.502V53.5H202.774ZM207.75 49.084V47.836L216.654 36.7H218.574L209.742 47.836L208.806 47.548H222.318V49.084H207.75ZM217.23 53.5V49.084L217.278 47.548V43.66H218.958V53.5H217.23Z" fill="white"/>
<path d="M254.824 16.5V5.3H259.656C260.904 5.3 261.869 5.55067 262.552 6.052C263.245 6.55333 263.592 7.26267 263.592 8.18C263.592 8.788 263.448 9.3 263.16 9.716C262.883 10.132 262.499 10.4467 262.008 10.66C261.528 10.8733 261 10.98 260.424 10.98L260.696 10.596C261.411 10.596 262.024 10.708 262.536 10.932C263.059 11.1453 263.464 11.4707 263.752 11.908C264.04 12.3347 264.184 12.868 264.184 13.508C264.184 14.4573 263.832 15.1933 263.128 15.716C262.435 16.2387 261.384 16.5 259.976 16.5H254.824ZM256.008 15.524H259.96C260.941 15.524 261.693 15.3587 262.216 15.028C262.739 14.6867 263 14.148 263 13.412C263 12.6867 262.739 12.1587 262.216 11.828C261.693 11.4867 260.941 11.316 259.96 11.316H255.88V10.34H259.576C260.472 10.34 261.165 10.1693 261.656 9.828C262.157 9.48667 262.408 8.98 262.408 8.308C262.408 7.62533 262.157 7.11867 261.656 6.788C261.165 6.44667 260.472 6.276 259.576 6.276H256.008V15.524ZM271.591 16.5V14.644L271.543 14.34V11.236C271.543 10.5213 271.34 9.972 270.935 9.588C270.54 9.204 269.948 9.012 269.159 9.012C268.615 9.012 268.097 9.10267 267.607 9.284C267.116 9.46533 266.7 9.70533 266.359 10.004L265.847 9.156C266.273 8.79333 266.785 8.516 267.383 8.324C267.98 8.12133 268.609 8.02 269.271 8.02C270.359 8.02 271.196 8.292 271.783 8.836C272.38 9.36933 272.679 10.1853 272.679 11.284V16.5H271.591ZM268.695 16.58C268.065 16.58 267.516 16.4787 267.047 16.276C266.588 16.0627 266.236 15.7747 265.991 15.412C265.745 15.0387 265.623 14.612 265.623 14.132C265.623 13.6947 265.724 13.3 265.927 12.948C266.14 12.5853 266.481 12.2973 266.951 12.084C267.431 11.86 268.071 11.748 268.871 11.748H271.767V12.596H268.903C268.092 12.596 267.527 12.74 267.207 13.028C266.897 13.316 266.743 13.6733 266.743 14.1C266.743 14.58 266.929 14.964 267.303 15.252C267.676 15.54 268.199 15.684 268.871 15.684C269.511 15.684 270.06 15.54 270.519 15.252C270.988 14.9533 271.329 14.5267 271.543 13.972L271.799 14.756C271.585 15.3107 271.212 15.7533 270.679 16.084C270.156 16.4147 269.495 16.58 268.695 16.58ZM278.932 16.58C278.1 16.58 277.353 16.3987 276.692 16.036C276.041 15.6627 275.529 15.156 275.156 14.516C274.783 13.8653 274.596 13.124 274.596 12.292C274.596 11.4493 274.783 10.708 275.156 10.068C275.529 9.428 276.041 8.92667 276.692 8.564C277.353 8.20133 278.1 8.02 278.932 8.02C279.647 8.02 280.292 8.15867 280.868 8.436C281.444 8.71333 281.897 9.12933 282.228 9.684L281.38 10.26C281.092 9.83333 280.735 9.51867 280.308 9.316C279.881 9.11333 279.417 9.012 278.916 9.012C278.319 9.012 277.78 9.15067 277.3 9.428C276.82 9.69467 276.441 10.0733 276.164 10.564C275.887 11.0547 275.748 11.6307 275.748 12.292C275.748 12.9533 275.887 13.5293 276.164 14.02C276.441 14.5107 276.82 14.8947 277.3 15.172C277.78 15.4387 278.319 15.572 278.916 15.572C279.417 15.572 279.881 15.4707 280.308 15.268C280.735 15.0653 281.092 14.756 281.38 14.34L282.228 14.916C281.897 15.46 281.444 15.876 280.868 16.164C280.292 16.4413 279.647 16.58 278.932 16.58ZM284.911 14.324L284.943 12.868L290.175 8.1H291.567L287.871 11.636L287.231 12.18L284.911 14.324ZM284.015 16.5V4.628H285.151V16.5H284.015ZM290.527 16.5L287.023 12.132L287.759 11.252L291.919 16.5H290.527ZM296.528 16.58C295.654 16.58 294.886 16.3987 294.224 16.036C293.563 15.6627 293.046 15.156 292.672 14.516C292.299 13.8653 292.112 13.124 292.112 12.292C292.112 11.46 292.288 10.724 292.64 10.084C293.003 9.444 293.494 8.94267 294.112 8.58C294.742 8.20667 295.446 8.02 296.224 8.02C297.014 8.02 297.712 8.20133 298.32 8.564C298.939 8.916 299.424 9.41733 299.776 10.068C300.128 10.708 300.304 11.4493 300.304 12.292C300.304 12.3453 300.299 12.404 300.288 12.468C300.288 12.5213 300.288 12.58 300.288 12.644H292.976V11.796H299.68L299.232 12.132C299.232 11.524 299.099 10.9853 298.832 10.516C298.576 10.036 298.224 9.66267 297.776 9.396C297.328 9.12933 296.811 8.996 296.224 8.996C295.648 8.996 295.131 9.12933 294.672 9.396C294.214 9.66267 293.856 10.036 293.6 10.516C293.344 10.996 293.216 11.5453 293.216 12.164V12.34C293.216 12.98 293.355 13.5453 293.632 14.036C293.92 14.516 294.315 14.8947 294.816 15.172C295.328 15.4387 295.91 15.572 296.56 15.572C297.072 15.572 297.547 15.4813 297.984 15.3C298.432 15.1187 298.816 14.8413 299.136 14.468L299.776 15.204C299.403 15.652 298.934 15.9933 298.368 16.228C297.814 16.4627 297.2 16.58 296.528 16.58ZM306.585 8.02C307.267 8.02 307.865 8.15333 308.377 8.42C308.899 8.676 309.305 9.07067 309.593 9.604C309.891 10.1373 310.041 10.8093 310.041 11.62V16.5H308.905V11.732C308.905 10.8467 308.681 10.18 308.233 9.732C307.795 9.27333 307.177 9.044 306.377 9.044C305.779 9.044 305.257 9.16667 304.809 9.412C304.371 9.64667 304.03 9.99333 303.785 10.452C303.55 10.9 303.433 11.444 303.433 12.084V16.5H302.297V8.1H303.385V10.404L303.209 9.972C303.475 9.364 303.902 8.88933 304.489 8.548C305.075 8.196 305.774 8.02 306.585 8.02ZM316.133 16.58C315.333 16.58 314.613 16.3987 313.973 16.036C313.344 15.6733 312.848 15.172 312.485 14.532C312.122 13.8813 311.941 13.1347 311.941 12.292C311.941 11.4387 312.122 10.692 312.485 10.052C312.848 9.412 313.344 8.916 313.973 8.564C314.613 8.20133 315.333 8.02 316.133 8.02C316.869 8.02 317.525 8.18533 318.101 8.516C318.688 8.84667 319.152 9.332 319.493 9.972C319.845 10.6013 320.021 11.3747 320.021 12.292C320.021 13.1987 319.85 13.972 319.509 14.612C319.168 15.252 318.704 15.7427 318.117 16.084C317.541 16.4147 316.88 16.58 316.133 16.58ZM316.213 15.572C316.81 15.572 317.344 15.4387 317.813 15.172C318.293 14.8947 318.666 14.5107 318.933 14.02C319.21 13.5187 319.349 12.9427 319.349 12.292C319.349 11.6307 319.21 11.0547 318.933 10.564C318.666 10.0733 318.293 9.69467 317.813 9.428C317.344 9.15067 316.81 9.012 316.213 9.012C315.626 9.012 315.098 9.15067 314.629 9.428C314.16 9.69467 313.786 10.0733 313.509 10.564C313.232 11.0547 313.093 11.6307 313.093 12.292C313.093 12.9427 313.232 13.5187 313.509 14.02C313.786 14.5107 314.16 14.8947 314.629 15.172C315.098 15.4387 315.626 15.572 316.213 15.572ZM319.381 16.5V13.972L319.493 12.276L319.333 10.58V4.628H320.469V16.5H319.381Z" fill="#8A8989"/>
<path d="M265.36 58.3C263.712 58.3 262.208 58.028 260.848 57.484C259.488 56.956 258.312 56.204 257.32 55.228C256.344 54.268 255.584 53.124 255.04 51.796C254.512 50.452 254.248 48.988 254.248 47.404C254.248 45.804 254.512 44.348 255.04 43.036C255.584 41.708 256.352 40.564 257.344 39.604C258.352 38.628 259.544 37.876 260.92 37.348C262.296 36.82 263.808 36.556 265.456 36.556C267.088 36.556 268.576 36.812 269.92 37.324C271.28 37.836 272.456 38.564 273.448 39.508C274.44 40.436 275.2 41.548 275.728 42.844C276.272 44.14 276.544 45.572 276.544 47.14C276.544 48.484 276.384 49.644 276.064 50.62C275.76 51.58 275.312 52.324 274.72 52.852C274.128 53.364 273.416 53.62 272.584 53.62C271.768 53.62 271.112 53.372 270.616 52.876C270.12 52.38 269.872 51.684 269.872 50.788V48.892L270.064 47.356L269.824 44.956V41.332H271.384V50.428C271.384 51.1 271.528 51.572 271.816 51.844C272.104 52.116 272.456 52.252 272.872 52.252C273.368 52.252 273.8 52.052 274.168 51.652C274.536 51.252 274.816 50.676 275.008 49.924C275.216 49.156 275.32 48.236 275.32 47.164C275.32 45.756 275.08 44.476 274.6 43.324C274.12 42.172 273.44 41.18 272.56 40.348C271.68 39.516 270.64 38.884 269.44 38.452C268.24 38.004 266.912 37.78 265.456 37.78C264 37.78 262.664 38.012 261.448 38.476C260.232 38.94 259.184 39.604 258.304 40.468C257.44 41.316 256.768 42.332 256.288 43.516C255.808 44.684 255.568 45.98 255.568 47.404C255.568 48.828 255.8 50.132 256.264 51.316C256.744 52.5 257.416 53.516 258.28 54.364C259.144 55.228 260.176 55.892 261.376 56.356C262.576 56.836 263.904 57.076 265.36 57.076C266.08 57.076 266.848 56.988 267.664 56.812C268.496 56.636 269.264 56.372 269.968 56.02L270.376 57.196C269.656 57.564 268.84 57.836 267.928 58.012C267.016 58.204 266.16 58.3 265.36 58.3ZM265.072 53.62C263.936 53.62 262.92 53.356 262.024 52.828C261.128 52.284 260.416 51.548 259.888 50.62C259.376 49.676 259.12 48.604 259.12 47.404C259.12 46.204 259.376 45.14 259.888 44.212C260.416 43.284 261.128 42.556 262.024 42.028C262.92 41.5 263.936 41.236 265.072 41.236C266.176 41.236 267.152 41.484 268 41.98C268.864 42.476 269.536 43.188 270.016 44.116C270.512 45.028 270.76 46.124 270.76 47.404C270.76 48.684 270.512 49.788 270.016 50.716C269.536 51.644 268.872 52.364 268.024 52.876C267.176 53.372 266.192 53.62 265.072 53.62ZM265.288 52.228C266.152 52.228 266.928 52.028 267.616 51.628C268.32 51.228 268.864 50.668 269.248 49.948C269.648 49.212 269.848 48.364 269.848 47.404C269.848 46.428 269.648 45.588 269.248 44.884C268.864 44.164 268.32 43.612 267.616 43.228C266.928 42.828 266.152 42.628 265.288 42.628C264.392 42.628 263.6 42.828 262.912 43.228C262.224 43.612 261.68 44.164 261.28 44.884C260.896 45.604 260.704 46.444 260.704 47.404C260.704 48.364 260.896 49.204 261.28 49.924C261.68 50.644 262.224 51.212 262.912 51.628C263.6 52.028 264.392 52.228 265.288 52.228ZM284.925 53.62C283.677 53.62 282.557 53.348 281.565 52.804C280.589 52.244 279.821 51.484 279.261 50.524C278.701 49.548 278.421 48.436 278.421 47.188C278.421 45.924 278.701 44.812 279.261 43.852C279.821 42.892 280.589 42.14 281.565 41.596C282.557 41.052 283.677 40.78 284.925 40.78C285.997 40.78 286.965 40.988 287.829 41.404C288.693 41.82 289.373 42.444 289.869 43.276L288.597 44.14C288.165 43.5 287.629 43.028 286.989 42.724C286.349 42.42 285.653 42.268 284.901 42.268C284.005 42.268 283.197 42.476 282.477 42.892C281.757 43.292 281.189 43.86 280.773 44.596C280.357 45.332 280.149 46.196 280.149 47.188C280.149 48.18 280.357 49.044 280.773 49.78C281.189 50.516 281.757 51.092 282.477 51.508C283.197 51.908 284.005 52.108 284.901 52.108C285.653 52.108 286.349 51.956 286.989 51.652C287.629 51.348 288.165 50.884 288.597 50.26L289.869 51.124C289.373 51.94 288.693 52.564 287.829 52.996C286.965 53.412 285.997 53.62 284.925 53.62ZM295.789 53.5L290.197 40.9H291.973L297.109 52.588H296.269L301.477 40.9H303.157L297.541 53.5H295.789ZM311.581 53.62C310.477 53.62 309.485 53.372 308.605 52.876C307.725 52.364 307.029 51.628 306.517 50.668C306.005 49.708 305.749 48.548 305.749 47.188C305.749 45.812 306.005 44.652 306.517 43.708C307.045 42.748 307.749 42.02 308.629 41.524C309.509 41.028 310.493 40.78 311.581 40.78C312.781 40.78 313.853 41.052 314.797 41.596C315.757 42.124 316.509 42.868 317.053 43.828C317.597 44.788 317.869 45.908 317.869 47.188C317.869 48.452 317.597 49.572 317.053 50.548C316.509 51.508 315.757 52.26 314.797 52.804C313.853 53.348 312.781 53.62 311.581 53.62ZM305.077 53.5V35.692H306.781V44.62L306.541 47.164L306.709 49.708V53.5H305.077ZM311.461 52.108C312.357 52.108 313.157 51.908 313.861 51.508C314.565 51.092 315.125 50.516 315.541 49.78C315.957 49.028 316.165 48.164 316.165 47.188C316.165 46.196 315.957 45.332 315.541 44.596C315.125 43.86 314.565 43.292 313.861 42.892C313.157 42.476 312.357 42.268 311.461 42.268C310.565 42.268 309.757 42.476 309.037 42.892C308.333 43.292 307.773 43.86 307.357 44.596C306.957 45.332 306.757 46.196 306.757 47.188C306.757 48.164 306.957 49.028 307.357 49.78C307.773 50.516 308.333 51.092 309.037 51.508C309.757 51.908 310.565 52.108 311.461 52.108ZM327.294 40.78C328.318 40.78 329.214 40.98 329.982 41.38C330.766 41.764 331.374 42.356 331.806 43.156C332.254 43.956 332.478 44.964 332.478 46.18V53.5H330.774V46.348C330.774 45.02 330.438 44.02 329.766 43.348C329.11 42.66 328.182 42.316 326.982 42.316C326.086 42.316 325.302 42.5 324.63 42.868C323.974 43.22 323.462 43.74 323.094 44.428C322.742 45.1 322.566 45.916 322.566 46.876V53.5H320.862V40.9H322.494V44.356L322.23 43.708C322.63 42.796 323.27 42.084 324.15 41.572C325.03 41.044 326.078 40.78 327.294 40.78ZM341.617 53.62C340.417 53.62 339.337 53.348 338.377 52.804C337.433 52.26 336.689 51.508 336.145 50.548C335.601 49.588 335.329 48.468 335.329 47.188C335.329 45.924 335.601 44.812 336.145 43.852C336.689 42.876 337.433 42.124 338.377 41.596C339.337 41.052 340.417 40.78 341.617 40.78C342.737 40.78 343.729 41.028 344.593 41.524C345.473 42.02 346.169 42.748 346.681 43.708C347.193 44.652 347.449 45.812 347.449 47.188C347.449 48.564 347.185 49.732 346.657 50.692C346.145 51.636 345.449 52.364 344.569 52.876C343.705 53.372 342.721 53.62 341.617 53.62ZM341.737 52.108C342.633 52.108 343.433 51.908 344.137 51.508C344.857 51.092 345.417 50.516 345.817 49.78C346.233 49.028 346.441 48.164 346.441 47.188C346.441 46.212 346.233 45.356 345.817 44.62C345.417 43.884 344.857 43.308 344.137 42.892C343.433 42.476 342.633 42.268 341.737 42.268C340.857 42.268 340.065 42.476 339.361 42.892C338.657 43.308 338.097 43.884 337.681 44.62C337.265 45.356 337.057 46.212 337.057 47.188C337.057 48.164 337.265 49.028 337.681 49.78C338.097 50.516 338.657 51.092 339.361 51.508C340.065 51.908 340.857 52.108 341.737 52.108ZM346.417 58.156V49.756L346.657 47.212L346.489 44.692V40.9H348.121V58.156H346.417ZM357.403 53.62C356.203 53.62 355.123 53.348 354.163 52.804C353.219 52.26 352.475 51.508 351.931 50.548C351.387 49.588 351.115 48.468 351.115 47.188C351.115 45.924 351.387 44.812 351.931 43.852C352.475 42.876 353.219 42.124 354.163 41.596C355.123 41.052 356.203 40.78 357.403 40.78C358.523 40.78 359.515 41.028 360.379 41.524C361.259 42.02 361.955 42.748 362.467 43.708C362.979 44.652 363.235 45.812 363.235 47.188C363.235 48.564 362.971 49.732 362.443 50.692C361.931 51.636 361.235 52.364 360.355 52.876C359.491 53.372 358.507 53.62 357.403 53.62ZM357.523 52.108C358.419 52.108 359.219 51.908 359.923 51.508C360.643 51.092 361.203 50.516 361.603 49.78C362.019 49.028 362.227 48.164 362.227 47.188C362.227 46.212 362.019 45.356 361.603 44.62C361.203 43.884 360.643 43.308 359.923 42.892C359.219 42.476 358.419 42.268 357.523 42.268C356.643 42.268 355.851 42.476 355.147 42.892C354.443 43.308 353.883 43.884 353.467 44.62C353.051 45.356 352.843 46.212 352.843 47.188C352.843 48.164 353.051 49.028 353.467 49.78C353.883 50.516 354.443 51.092 355.147 51.508C355.851 51.908 356.643 52.108 357.523 52.108ZM362.203 58.156V49.756L362.443 47.212L362.275 44.692V40.9H363.907V58.156H362.203Z" fill="white"/>
<path d="M398.824 16.5V5.3H403.384C404.579 5.3 405.624 5.54 406.52 6.02C407.427 6.48933 408.131 7.14533 408.632 7.988C409.133 8.83067 409.384 9.80133 409.384 10.9C409.384 11.9987 409.133 12.9693 408.632 13.812C408.131 14.6547 407.427 15.316 406.52 15.796C405.624 16.2653 404.579 16.5 403.384 16.5H398.824ZM400.008 15.476H403.32C404.312 15.476 405.171 15.284 405.896 14.9C406.632 14.5053 407.203 13.9667 407.608 13.284C408.013 12.5907 408.216 11.796 408.216 10.9C408.216 9.99333 408.013 9.19867 407.608 8.516C407.203 7.83333 406.632 7.3 405.896 6.916C405.171 6.52133 404.312 6.324 403.32 6.324H400.008V15.476ZM415.051 16.58C414.176 16.58 413.408 16.3987 412.747 16.036C412.085 15.6627 411.568 15.156 411.195 14.516C410.821 13.8653 410.635 13.124 410.635 12.292C410.635 11.46 410.811 10.724 411.163 10.084C411.525 9.444 412.016 8.94267 412.635 8.58C413.264 8.20667 413.968 8.02 414.747 8.02C415.536 8.02 416.235 8.20133 416.843 8.564C417.461 8.916 417.947 9.41733 418.299 10.068C418.651 10.708 418.827 11.4493 418.827 12.292C418.827 12.3453 418.821 12.404 418.811 12.468C418.811 12.5213 418.811 12.58 418.811 12.644H411.499V11.796H418.203L417.755 12.132C417.755 11.524 417.621 10.9853 417.355 10.516C417.099 10.036 416.747 9.66267 416.299 9.396C415.851 9.12933 415.333 8.996 414.747 8.996C414.171 8.996 413.653 9.12933 413.195 9.396C412.736 9.66267 412.379 10.036 412.123 10.516C411.867 10.996 411.739 11.5453 411.739 12.164V12.34C411.739 12.98 411.877 13.5453 412.155 14.036C412.443 14.516 412.837 14.8947 413.339 15.172C413.851 15.4387 414.432 15.572 415.083 15.572C415.595 15.572 416.069 15.4813 416.507 15.3C416.955 15.1187 417.339 14.8413 417.659 14.468L418.299 15.204C417.925 15.652 417.456 15.9933 416.891 16.228C416.336 16.4627 415.723 16.58 415.051 16.58ZM423.075 16.58C422.382 16.58 421.726 16.484 421.107 16.292C420.488 16.0893 420.003 15.8387 419.651 15.54L420.163 14.644C420.504 14.9 420.942 15.124 421.475 15.316C422.008 15.4973 422.568 15.588 423.155 15.588C423.955 15.588 424.531 15.4653 424.883 15.22C425.235 14.964 425.411 14.628 425.411 14.212C425.411 13.9027 425.31 13.6627 425.107 13.492C424.915 13.3107 424.659 13.1773 424.339 13.092C424.019 12.996 423.662 12.916 423.267 12.852C422.872 12.788 422.478 12.7133 422.083 12.628C421.699 12.5427 421.347 12.42 421.027 12.26C420.707 12.0893 420.446 11.86 420.243 11.572C420.051 11.284 419.955 10.9 419.955 10.42C419.955 9.96133 420.083 9.55067 420.339 9.188C420.595 8.82533 420.968 8.54267 421.459 8.34C421.96 8.12667 422.568 8.02 423.283 8.02C423.827 8.02 424.371 8.09467 424.915 8.244C425.459 8.38267 425.907 8.56933 426.259 8.804L425.763 9.716C425.39 9.46 424.99 9.27867 424.563 9.172C424.136 9.05467 423.71 8.996 423.283 8.996C422.526 8.996 421.966 9.12933 421.603 9.396C421.251 9.652 421.075 9.98267 421.075 10.388C421.075 10.708 421.171 10.9587 421.363 11.14C421.566 11.3213 421.827 11.4653 422.147 11.572C422.478 11.668 422.835 11.748 423.219 11.812C423.614 11.876 424.003 11.956 424.387 12.052C424.782 12.1373 425.139 12.26 425.459 12.42C425.79 12.5693 426.051 12.788 426.243 13.076C426.446 13.3533 426.547 13.7213 426.547 14.18C426.547 14.6707 426.408 15.0973 426.131 15.46C425.864 15.812 425.47 16.0893 424.947 16.292C424.435 16.484 423.811 16.58 423.075 16.58ZM428.312 16.5V8.1H429.448V16.5H428.312ZM428.888 6.244C428.653 6.244 428.456 6.164 428.296 6.004C428.136 5.844 428.056 5.652 428.056 5.428C428.056 5.204 428.136 5.01733 428.296 4.868C428.456 4.708 428.653 4.628 428.888 4.628C429.122 4.628 429.32 4.70267 429.48 4.852C429.64 5.00133 429.72 5.188 429.72 5.412C429.72 5.64667 429.64 5.844 429.48 6.004C429.33 6.164 429.133 6.244 428.888 6.244ZM435.872 19.684C435.104 19.684 434.368 19.572 433.664 19.348C432.96 19.124 432.39 18.804 431.952 18.388L432.528 17.524C432.923 17.876 433.408 18.1533 433.984 18.356C434.571 18.5693 435.19 18.676 435.84 18.676C436.907 18.676 437.691 18.4253 438.192 17.924C438.694 17.4333 438.944 16.6653 438.944 15.62V13.524L439.104 12.084L438.992 10.644V8.1H440.08V15.476C440.08 16.9267 439.723 17.988 439.008 18.66C438.304 19.3427 437.259 19.684 435.872 19.684ZM435.664 16.18C434.864 16.18 434.144 16.0093 433.504 15.668C432.864 15.316 432.358 14.8307 431.984 14.212C431.622 13.5933 431.44 12.884 431.44 12.084C431.44 11.284 431.622 10.58 431.984 9.972C432.358 9.35333 432.864 8.87333 433.504 8.532C434.144 8.19067 434.864 8.02 435.664 8.02C436.411 8.02 437.083 8.17467 437.68 8.484C438.278 8.79333 438.752 9.252 439.104 9.86C439.456 10.468 439.632 11.2093 439.632 12.084C439.632 12.9587 439.456 13.7 439.104 14.308C438.752 14.916 438.278 15.38 437.68 15.7C437.083 16.02 436.411 16.18 435.664 16.18ZM435.776 15.172C436.395 15.172 436.944 15.044 437.424 14.788C437.904 14.5213 438.283 14.1587 438.56 13.7C438.838 13.2307 438.976 12.692 438.976 12.084C438.976 11.476 438.838 10.9427 438.56 10.484C438.283 10.0253 437.904 9.668 437.424 9.412C436.944 9.14533 436.395 9.012 435.776 9.012C435.168 9.012 434.619 9.14533 434.128 9.412C433.648 9.668 433.27 10.0253 432.992 10.484C432.726 10.9427 432.592 11.476 432.592 12.084C432.592 12.692 432.726 13.2307 432.992 13.7C433.27 14.1587 433.648 14.5213 434.128 14.788C434.619 15.044 435.168 15.172 435.776 15.172ZM447.21 8.02C447.892 8.02 448.49 8.15333 449.002 8.42C449.524 8.676 449.93 9.07067 450.218 9.604C450.516 10.1373 450.666 10.8093 450.666 11.62V16.5H449.53V11.732C449.53 10.8467 449.306 10.18 448.858 9.732C448.42 9.27333 447.802 9.044 447.002 9.044C446.404 9.044 445.882 9.16667 445.434 9.412C444.996 9.64667 444.655 9.99333 444.41 10.452C444.175 10.9 444.058 11.444 444.058 12.084V16.5H442.922V8.1H444.01V10.404L443.834 9.972C444.1 9.364 444.527 8.88933 445.114 8.548C445.7 8.196 446.399 8.02 447.21 8.02Z" fill="#8A8989"/>
<path d="M409.36 58.3C407.712 58.3 406.208 58.028 404.848 57.484C403.488 56.956 402.312 56.204 401.32 55.228C400.344 54.268 399.584 53.124 399.04 51.796C398.512 50.452 398.248 48.988 398.248 47.404C398.248 45.804 398.512 44.348 399.04 43.036C399.584 41.708 400.352 40.564 401.344 39.604C402.352 38.628 403.544 37.876 404.92 37.348C406.296 36.82 407.808 36.556 409.456 36.556C411.088 36.556 412.576 36.812 413.92 37.324C415.28 37.836 416.456 38.564 417.448 39.508C418.44 40.436 419.2 41.548 419.728 42.844C420.272 44.14 420.544 45.572 420.544 47.14C420.544 48.484 420.384 49.644 420.064 50.62C419.76 51.58 419.312 52.324 418.72 52.852C418.128 53.364 417.416 53.62 416.584 53.62C415.768 53.62 415.112 53.372 414.616 52.876C414.12 52.38 413.872 51.684 413.872 50.788V48.892L414.064 47.356L413.824 44.956V41.332H415.384V50.428C415.384 51.1 415.528 51.572 415.816 51.844C416.104 52.116 416.456 52.252 416.872 52.252C417.368 52.252 417.8 52.052 418.168 51.652C418.536 51.252 418.816 50.676 419.008 49.924C419.216 49.156 419.32 48.236 419.32 47.164C419.32 45.756 419.08 44.476 418.6 43.324C418.12 42.172 417.44 41.18 416.56 40.348C415.68 39.516 414.64 38.884 413.44 38.452C412.24 38.004 410.912 37.78 409.456 37.78C408 37.78 406.664 38.012 405.448 38.476C404.232 38.94 403.184 39.604 402.304 40.468C401.44 41.316 400.768 42.332 400.288 43.516C399.808 44.684 399.568 45.98 399.568 47.404C399.568 48.828 399.8 50.132 400.264 51.316C400.744 52.5 401.416 53.516 402.28 54.364C403.144 55.228 404.176 55.892 405.376 56.356C406.576 56.836 407.904 57.076 409.36 57.076C410.08 57.076 410.848 56.988 411.664 56.812C412.496 56.636 413.264 56.372 413.968 56.02L414.376 57.196C413.656 57.564 412.84 57.836 411.928 58.012C411.016 58.204 410.16 58.3 409.36 58.3ZM409.072 53.62C407.936 53.62 406.92 53.356 406.024 52.828C405.128 52.284 404.416 51.548 403.888 50.62C403.376 49.676 403.12 48.604 403.12 47.404C403.12 46.204 403.376 45.14 403.888 44.212C404.416 43.284 405.128 42.556 406.024 42.028C406.92 41.5 407.936 41.236 409.072 41.236C410.176 41.236 411.152 41.484 412 41.98C412.864 42.476 413.536 43.188 414.016 44.116C414.512 45.028 414.76 46.124 414.76 47.404C414.76 48.684 414.512 49.788 414.016 50.716C413.536 51.644 412.872 52.364 412.024 52.876C411.176 53.372 410.192 53.62 409.072 53.62ZM409.288 52.228C410.152 52.228 410.928 52.028 411.616 51.628C412.32 51.228 412.864 50.668 413.248 49.948C413.648 49.212 413.848 48.364 413.848 47.404C413.848 46.428 413.648 45.588 413.248 44.884C412.864 44.164 412.32 43.612 411.616 43.228C410.928 42.828 410.152 42.628 409.288 42.628C408.392 42.628 407.6 42.828 406.912 43.228C406.224 43.612 405.68 44.164 405.28 44.884C404.896 45.604 404.704 46.444 404.704 47.404C404.704 48.364 404.896 49.204 405.28 49.924C405.68 50.644 406.224 51.212 406.912 51.628C407.6 52.028 408.392 52.228 409.288 52.228ZM427.794 53.62C426.61 53.62 425.698 53.3 425.058 52.66C424.418 52.02 424.098 51.116 424.098 49.948V38.116H425.802V49.852C425.802 50.588 425.986 51.156 426.354 51.556C426.738 51.956 427.282 52.156 427.986 52.156C428.738 52.156 429.362 51.94 429.858 51.508L430.458 52.732C430.122 53.036 429.714 53.26 429.234 53.404C428.77 53.548 428.29 53.62 427.794 53.62ZM421.842 42.316V40.9H429.642V42.316H421.842ZM440.976 53.5V50.716L440.904 50.26V45.604C440.904 44.532 440.6 43.708 439.992 43.132C439.4 42.556 438.512 42.268 437.328 42.268C436.512 42.268 435.736 42.404 435 42.676C434.264 42.948 433.64 43.308 433.128 43.756L432.36 42.484C433 41.94 433.768 41.524 434.664 41.236C435.56 40.932 436.504 40.78 437.496 40.78C439.128 40.78 440.384 41.188 441.264 42.004C442.16 42.804 442.608 44.028 442.608 45.676V53.5H440.976ZM436.632 53.62C435.688 53.62 434.864 53.468 434.16 53.164C433.472 52.844 432.944 52.412 432.576 51.868C432.208 51.308 432.024 50.668 432.024 49.948C432.024 49.292 432.176 48.7 432.48 48.172C432.8 47.628 433.312 47.196 434.016 46.876C434.736 46.54 435.696 46.372 436.896 46.372H441.24V47.644H436.944C435.728 47.644 434.88 47.86 434.4 48.292C433.936 48.724 433.704 49.26 433.704 49.9C433.704 50.62 433.984 51.196 434.544 51.628C435.104 52.06 435.888 52.276 436.896 52.276C437.856 52.276 438.68 52.06 439.368 51.628C440.072 51.18 440.584 50.54 440.904 49.708L441.288 50.884C440.968 51.716 440.408 52.38 439.608 52.876C438.824 53.372 437.832 53.62 436.632 53.62ZM448.1 50.236L448.148 48.052L455.996 40.9H458.084L452.54 46.204L451.58 47.02L448.1 50.236ZM446.756 53.5V35.692H448.46V53.5H446.756ZM456.524 53.5L451.268 46.948L452.372 45.628L458.612 53.5H456.524ZM463.699 53.62C462.659 53.62 461.675 53.476 460.747 53.188C459.819 52.884 459.091 52.508 458.563 52.06L459.331 50.716C459.843 51.1 460.499 51.436 461.299 51.724C462.099 51.996 462.939 52.132 463.819 52.132C465.019 52.132 465.883 51.948 466.411 51.58C466.939 51.196 467.203 50.692 467.203 50.068C467.203 49.604 467.051 49.244 466.747 48.988C466.459 48.716 466.075 48.516 465.595 48.388C465.115 48.244 464.579 48.124 463.987 48.028C463.395 47.932 462.803 47.82 462.211 47.692C461.635 47.564 461.107 47.38 460.627 47.14C460.147 46.884 459.755 46.54 459.451 46.108C459.163 45.676 459.019 45.1 459.019 44.38C459.019 43.692 459.211 43.076 459.595 42.532C459.979 41.988 460.539 41.564 461.275 41.26C462.027 40.94 462.939 40.78 464.011 40.78C464.827 40.78 465.643 40.892 466.459 41.116C467.275 41.324 467.947 41.604 468.475 41.956L467.731 43.324C467.171 42.94 466.571 42.668 465.931 42.508C465.291 42.332 464.651 42.244 464.011 42.244C462.875 42.244 462.035 42.444 461.491 42.844C460.963 43.228 460.699 43.724 460.699 44.332C460.699 44.812 460.843 45.188 461.131 45.46C461.435 45.732 461.827 45.948 462.307 46.108C462.803 46.252 463.339 46.372 463.915 46.468C464.507 46.564 465.091 46.684 465.667 46.828C466.259 46.956 466.795 47.14 467.275 47.38C467.771 47.604 468.163 47.932 468.451 48.364C468.755 48.78 468.907 49.332 468.907 50.02C468.907 50.756 468.699 51.396 468.283 51.94C467.883 52.468 467.291 52.884 466.507 53.188C465.739 53.476 464.803 53.62 463.699 53.62ZM475.538 53.62C474.354 53.62 473.442 53.3 472.802 52.66C472.162 52.02 471.842 51.116 471.842 49.948V38.116H473.546V49.852C473.546 50.588 473.73 51.156 474.098 51.556C474.482 51.956 475.026 52.156 475.73 52.156C476.482 52.156 477.106 51.94 477.602 51.508L478.202 52.732C477.866 53.036 477.458 53.26 476.978 53.404C476.514 53.548 476.034 53.62 475.538 53.62ZM469.586 42.316V40.9H477.386V42.316H469.586ZM487.328 53.62C486.24 53.62 485.256 53.372 484.376 52.876C483.496 52.364 482.792 51.636 482.264 50.692C481.752 49.732 481.496 48.564 481.496 47.188C481.496 45.812 481.752 44.652 482.264 43.708C482.776 42.748 483.472 42.02 484.352 41.524C485.232 41.028 486.224 40.78 487.328 40.78C488.528 40.78 489.6 41.052 490.544 41.596C491.504 42.124 492.256 42.876 492.8 43.852C493.344 44.812 493.616 45.924 493.616 47.188C493.616 48.468 493.344 49.588 492.8 50.548C492.256 51.508 491.504 52.26 490.544 52.804C489.6 53.348 488.528 53.62 487.328 53.62ZM480.824 58.156V40.9H482.456V44.692L482.288 47.212L482.528 49.756V58.156H480.824ZM487.208 52.108C488.104 52.108 488.904 51.908 489.608 51.508C490.312 51.092 490.872 50.516 491.288 49.78C491.704 49.028 491.912 48.164 491.912 47.188C491.912 46.212 491.704 45.356 491.288 44.62C490.872 43.884 490.312 43.308 489.608 42.892C488.904 42.476 488.104 42.268 487.208 42.268C486.312 42.268 485.504 42.476 484.784 42.892C484.08 43.308 483.52 43.884 483.104 44.62C482.704 45.356 482.504 46.212 482.504 47.188C482.504 48.164 482.704 49.028 483.104 49.78C483.52 50.516 484.08 51.092 484.784 51.508C485.504 51.908 486.312 52.108 487.208 52.108Z" fill="white"/>
</svg>
