<svg width="40" height="40" viewBox="0 0 40 40" fill="none" xmlns="http://www.w3.org/2000/svg">
<path d="M8.75 18.75H33.75C34.0815 18.75 34.3995 18.8817 34.6339 19.1161C34.8683 19.3505 35 19.6685 35 20C35 20.3315 34.8683 20.6495 34.6339 20.8839C34.3995 21.1183 34.0815 21.25 33.75 21.25H8.75C8.41848 21.25 8.10054 21.1183 7.86612 20.8839C7.6317 20.6495 7.5 20.3315 7.5 20C7.5 19.6685 7.6317 19.3505 7.86612 19.1161C8.10054 18.8817 8.41848 18.75 8.75 18.75Z" fill="white"/>
<path d="M9.26729 20.0001L19.6348 30.3651C19.8695 30.5998 20.0014 30.9182 20.0014 31.2501C20.0014 31.5821 19.8695 31.9004 19.6348 32.1351C19.4001 32.3698 19.0817 32.5017 18.7498 32.5017C18.4179 32.5017 18.0995 32.3698 17.8648 32.1351L6.61479 20.8851C6.49838 20.769 6.40603 20.6311 6.34301 20.4792C6.28 20.3273 6.24756 20.1645 6.24756 20.0001C6.24756 19.8357 6.28 19.6729 6.34301 19.521C6.40603 19.3692 6.49838 19.2312 6.61479 19.1151L17.8648 7.86511C18.0995 7.6304 18.4179 7.49854 18.7498 7.49854C19.0817 7.49854 19.4001 7.6304 19.6348 7.86511C19.8695 8.09983 20.0014 8.41817 20.0014 8.75011C20.0014 9.08205 19.8695 9.4004 19.6348 9.63511L9.26729 20.0001Z" fill="white"/>
</svg>
