<svg width="87" height="60" viewBox="0 0 87 60" fill="none" xmlns="http://www.w3.org/2000/svg">
<path d="M55.6632 15.943H31.3365C30.8442 15.9436 30.3584 16.0554 29.9154 16.2701C29.4724 16.4848 29.0836 16.7969 28.7782 17.183C28.474 17.568 28.2615 18.0172 28.1567 18.4966C28.0519 18.9759 28.0575 19.4728 28.1732 19.9497L30.7815 30.6297C31.1592 32.0057 31.9791 33.2192 33.1149 34.083C34.2515 34.948 35.6432 35.4163 37.0749 35.4163H49.9215C51.3532 35.4163 52.7449 34.948 53.8815 34.083C55.0173 33.2192 55.8372 32.0057 56.2149 30.6297L58.8232 19.9513C58.9988 19.2314 58.9217 18.4731 58.605 17.8032C58.2882 17.1333 57.751 16.5925 57.0832 16.2713C56.6389 16.058 56.1527 15.9459 55.6599 15.943M36.9782 22.433V28.9247M43.4999 22.433V28.9247M50.0215 22.433V28.9247M54.9132 15.943C54.9126 14.4498 54.617 12.9713 54.0432 11.5927C53.4694 10.2141 52.6289 8.96242 51.5699 7.90968C49.4257 5.77718 46.524 4.58101 43.4999 4.58301C40.4758 4.58101 37.5741 5.77718 35.4299 7.90968C34.3711 8.96256 33.5309 10.2143 32.9574 11.5929C32.3839 12.9715 32.0885 14.4499 32.0882 15.943" stroke="white" stroke-width="1.5" stroke-linecap="round" stroke-linejoin="round"/>
<path d="M17.276 56L13.82 51.84L14.764 51.28L18.62 56H17.276ZM11.116 56V47.6H12.252V56H11.116ZM11.9 52.256V51.28H14.604V52.256H11.9ZM14.86 51.92L13.804 51.76L17.148 47.6H18.38L14.86 51.92ZM23.252 56.08C22.4413 56.08 21.7107 55.8987 21.06 55.536C20.42 55.1627 19.9133 54.656 19.54 54.016C19.1667 53.3653 18.98 52.624 18.98 51.792C18.98 50.9493 19.1667 50.208 19.54 49.568C19.9133 48.928 20.42 48.4267 21.06 48.064C21.7 47.7013 22.4307 47.52 23.252 47.52C24.084 47.52 24.82 47.7013 25.46 48.064C26.1107 48.4267 26.6173 48.928 26.98 49.568C27.3533 50.208 27.54 50.9493 27.54 51.792C27.54 52.624 27.3533 53.3653 26.98 54.016C26.6173 54.656 26.1107 55.1627 25.46 55.536C24.8093 55.8987 24.0733 56.08 23.252 56.08ZM23.252 55.072C23.86 55.072 24.3987 54.9387 24.868 54.672C25.3373 54.3947 25.7053 54.0107 25.972 53.52C26.2493 53.0187 26.388 52.4427 26.388 51.792C26.388 51.1307 26.2493 50.5547 25.972 50.064C25.7053 49.5733 25.3373 49.1947 24.868 48.928C24.3987 48.6507 23.8653 48.512 23.268 48.512C22.6707 48.512 22.1373 48.6507 21.668 48.928C21.1987 49.1947 20.8253 49.5733 20.548 50.064C20.2707 50.5547 20.132 51.1307 20.132 51.792C20.132 52.4427 20.2707 53.0187 20.548 53.52C20.8253 54.0107 21.1987 54.3947 21.668 54.672C22.1373 54.9387 22.6653 55.072 23.252 55.072ZM33.9839 56.08C33.2585 56.08 32.6025 55.9147 32.0159 55.584C31.4292 55.2427 30.9599 54.7573 30.6079 54.128C30.2665 53.488 30.0959 52.7093 30.0959 51.792C30.0959 50.8747 30.2665 50.1013 30.6079 49.472C30.9492 48.832 31.4132 48.3467 31.9999 48.016C32.5865 47.6853 33.2479 47.52 33.9839 47.52C34.7839 47.52 35.4985 47.7013 36.1279 48.064C36.7679 48.416 37.2692 48.9173 37.6319 49.568C37.9945 50.208 38.1759 50.9493 38.1759 51.792C38.1759 52.6453 37.9945 53.392 37.6319 54.032C37.2692 54.672 36.7679 55.1733 36.1279 55.536C35.4985 55.8987 34.7839 56.08 33.9839 56.08ZM29.6479 59.104V47.6H30.7359V50.128L30.6239 51.808L30.7839 53.504V59.104H29.6479ZM33.9039 55.072C34.5012 55.072 35.0345 54.9387 35.5039 54.672C35.9732 54.3947 36.3465 54.0107 36.6239 53.52C36.9012 53.0187 37.0399 52.4427 37.0399 51.792C37.0399 51.1413 36.9012 50.5707 36.6239 50.08C36.3465 49.5893 35.9732 49.2053 35.5039 48.928C35.0345 48.6507 34.5012 48.512 33.9039 48.512C33.3065 48.512 32.7679 48.6507 32.2879 48.928C31.8185 49.2053 31.4452 49.5893 31.1679 50.08C30.9012 50.5707 30.7679 51.1413 30.7679 51.792C30.7679 52.4427 30.9012 53.0187 31.1679 53.52C31.4452 54.0107 31.8185 54.3947 32.2879 54.672C32.7679 54.9387 33.3065 55.072 33.9039 55.072ZM42.4901 56.096C41.8821 56.096 41.2795 56.0107 40.6821 55.84C40.0848 55.6693 39.5568 55.408 39.0981 55.056L39.4661 54.208C39.8715 54.5067 40.3408 54.736 40.8741 54.896C41.4075 55.0453 41.9355 55.12 42.4581 55.12C42.9808 55.1093 43.4341 55.0347 43.8181 54.896C44.2021 54.7573 44.5008 54.5653 44.7141 54.32C44.9275 54.0747 45.0341 53.7973 45.0341 53.488C45.0341 53.04 44.8315 52.6933 44.4261 52.448C44.0208 52.192 43.4661 52.064 42.7621 52.064H41.3221V51.232H42.6821C43.0981 51.232 43.4661 51.1787 43.7861 51.072C44.1061 50.9653 44.3515 50.8107 44.5221 50.608C44.7035 50.4053 44.7941 50.1653 44.7941 49.888C44.7941 49.5893 44.6875 49.3333 44.4741 49.12C44.2715 48.9067 43.9888 48.7467 43.6261 48.64C43.2635 48.5333 42.8528 48.48 42.3941 48.48C41.9781 48.4907 41.5461 48.5547 41.0981 48.672C40.6501 48.7787 40.2075 48.944 39.7701 49.168L39.4501 48.288C39.9408 48.032 40.4261 47.84 40.9061 47.712C41.3968 47.5733 41.8875 47.504 42.3781 47.504C43.0501 47.4827 43.6528 47.5627 44.1861 47.744C44.7301 47.9253 45.1621 48.1867 45.4821 48.528C45.8021 48.8587 45.9621 49.2587 45.9621 49.728C45.9621 50.144 45.8341 50.5067 45.5781 50.816C45.3221 51.1253 44.9808 51.3653 44.5541 51.536C44.1275 51.7067 43.6421 51.792 43.0981 51.792L43.1461 51.488C44.1061 51.488 44.8528 51.6747 45.3861 52.048C45.9301 52.4213 46.2021 52.928 46.2021 53.568C46.2021 54.0693 46.0368 54.512 45.7061 54.896C45.3755 55.2693 44.9275 55.5627 44.3621 55.776C43.8075 55.9893 43.1835 56.096 42.4901 56.096ZM48.461 56V47.6H49.597V54.272L55.213 47.6H56.221V56H55.085V49.312L49.485 56H48.461ZM59.1566 56V47.6H60.2926V51.312H65.5886V47.6H66.7246V56H65.5886V52.288H60.2926V56H59.1566ZM74.8495 56V54.144L74.8015 53.84V50.736C74.8015 50.0213 74.5988 49.472 74.1935 49.088C73.7988 48.704 73.2068 48.512 72.4175 48.512C71.8735 48.512 71.3562 48.6027 70.8655 48.784C70.3748 48.9653 69.9588 49.2053 69.6175 49.504L69.1055 48.656C69.5322 48.2933 70.0442 48.016 70.6415 47.824C71.2388 47.6213 71.8682 47.52 72.5295 47.52C73.6175 47.52 74.4548 47.792 75.0415 48.336C75.6388 48.8693 75.9375 49.6853 75.9375 50.784V56H74.8495ZM71.9535 56.08C71.3242 56.08 70.7748 55.9787 70.3055 55.776C69.8468 55.5627 69.4948 55.2747 69.2495 54.912C69.0042 54.5387 68.8815 54.112 68.8815 53.632C68.8815 53.1947 68.9828 52.8 69.1855 52.448C69.3988 52.0853 69.7402 51.7973 70.2095 51.584C70.6895 51.36 71.3295 51.248 72.1295 51.248H75.0255V52.096H72.1615C71.3508 52.096 70.7855 52.24 70.4655 52.528C70.1562 52.816 70.0015 53.1733 70.0015 53.6C70.0015 54.08 70.1882 54.464 70.5615 54.752C70.9348 55.04 71.4575 55.184 72.1295 55.184C72.7695 55.184 73.3188 55.04 73.7775 54.752C74.2468 54.4533 74.5882 54.0267 74.8015 53.472L75.0575 54.256C74.8442 54.8107 74.4708 55.2533 73.9375 55.584C73.4148 55.9147 72.7535 56.08 71.9535 56.08Z" fill="#8A8989"/>
</svg>
