<svg width="35" height="36" viewBox="0 0 35 36" fill="none" xmlns="http://www.w3.org/2000/svg">
<path d="M24.6094 13.2299V11.9844C24.6094 8.91777 19.5645 6.51562 13.125 6.51562C6.68555 6.51562 1.64062 8.91777 1.64062 11.9844V17.4531C1.64062 20.0699 5.31289 22.2 10.3906 22.7701V24.0156C10.3906 27.0822 15.4355 29.4844 21.875 29.4844C28.3145 29.4844 33.3594 27.0822 33.3594 24.0156V18.5469C33.3594 15.9656 29.7869 13.8123 24.6094 13.2299ZM32.2656 18.5469C32.2656 20.6592 28.0902 22.9219 21.875 22.9219C20.5922 22.9238 19.3116 22.8168 18.0469 22.602V22.4119C21.9584 21.5492 24.6094 19.6775 24.6094 17.4531V14.3318C29.0145 14.8555 32.2656 16.6232 32.2656 18.5469ZM14.7916 21.7721C14.2548 21.8094 13.6992 21.8281 13.125 21.8281C12.3771 21.8281 11.6594 21.7939 10.9744 21.7338H10.9375C10.3687 21.6818 9.82187 21.6107 9.29688 21.5205V17.1523C10.5628 17.355 11.843 17.4556 13.125 17.4531C14.407 17.4556 15.6872 17.355 16.9531 17.1523V21.5164C16.2505 21.6363 15.5423 21.7208 14.8313 21.7693L14.7916 21.7721ZM23.5156 14.3523V17.4531C23.5156 18.9406 21.443 20.502 18.0469 21.2963V16.9432C20.4572 16.4113 22.3877 15.4967 23.5156 14.3523ZM13.125 7.60938C19.3402 7.60938 23.5156 9.87207 23.5156 11.9844C23.5156 14.0967 19.3402 16.3594 13.125 16.3594C6.90977 16.3594 2.73438 14.0967 2.73438 11.9844C2.73438 9.87207 6.90977 7.60938 13.125 7.60938ZM2.73438 17.4531V14.3523C3.8623 15.4967 5.79277 16.4113 8.20312 16.95V21.3031C4.80703 20.502 2.73438 18.9406 2.73438 17.4531ZM11.4844 24.0156V22.8672C12.0189 22.9027 12.5672 22.9219 13.125 22.9219C13.6828 22.9219 14.227 22.9027 14.7656 22.8686C15.4798 23.1283 16.2106 23.3398 16.9531 23.5016V27.8588C13.557 27.0645 11.4844 25.5031 11.4844 24.0156ZM18.0469 28.0789V23.7107C19.3127 23.9151 20.5928 24.017 21.875 24.0156C23.157 24.0181 24.4372 23.9175 25.7031 23.7148V28.0789C23.168 28.4947 20.582 28.4947 18.0469 28.0789ZM32.2656 24.0156C32.2656 25.5031 30.193 27.0645 26.7969 27.8588V23.5057C29.2072 22.9738 31.1377 22.0592 32.2656 20.908V24.0156Z" fill="white"/>
</svg>
