<svg width="30" height="31" viewBox="0 0 30 31" fill="none" xmlns="http://www.w3.org/2000/svg">
<path d="M10.5469 5.89062H10.3125C10.4414 5.89062 10.5469 5.78516 10.5469 5.65625V5.89062ZM10.5469 5.89062H19.4531V5.65625C19.4531 5.78516 19.5586 5.89062 19.6875 5.89062H19.4531V8H21.5625V5.65625C21.5625 4.62207 20.7217 3.78125 19.6875 3.78125H10.3125C9.27832 3.78125 8.4375 4.62207 8.4375 5.65625V8H10.5469V5.89062ZM25.3125 8H4.6875C4.16895 8 3.75 8.41895 3.75 8.9375V9.875C3.75 10.0039 3.85547 10.1094 3.98438 10.1094H5.75391L6.47754 25.4316C6.52441 26.4307 7.35059 27.2188 8.34961 27.2188H21.6504C22.6523 27.2188 23.4756 26.4336 23.5225 25.4316L24.2461 10.1094H26.0156C26.1445 10.1094 26.25 10.0039 26.25 9.875V8.9375C26.25 8.41895 25.8311 8 25.3125 8ZM21.4248 25.1094H8.5752L7.86621 10.1094H22.1338L21.4248 25.1094Z" fill="#1E1D1C"/>
</svg>
