<svg width="40" height="40" viewBox="0 0 40 40" fill="none" xmlns="http://www.w3.org/2000/svg">
<path d="M14.0625 7.1875H13.75C13.9219 7.1875 14.0625 7.04688 14.0625 6.875V7.1875ZM14.0625 7.1875H25.9375V6.875C25.9375 7.04688 26.0781 7.1875 26.25 7.1875H25.9375V10H28.75V6.875C28.75 5.49609 27.6289 4.375 26.25 4.375H13.75C12.3711 4.375 11.25 5.49609 11.25 6.875V10H14.0625V7.1875ZM33.75 10H6.25C5.55859 10 5 10.5586 5 11.25V12.5C5 12.6719 5.14062 12.8125 5.3125 12.8125H7.67187L8.63672 33.2422C8.69922 34.5742 9.80078 35.625 11.1328 35.625H28.8672C30.2031 35.625 31.3008 34.5781 31.3633 33.2422L32.3281 12.8125H34.6875C34.8594 12.8125 35 12.6719 35 12.5V11.25C35 10.5586 34.4414 10 33.75 10ZM28.5664 32.8125H11.4336L10.4883 12.8125H29.5117L28.5664 32.8125Z" fill="white"/>
</svg>
