<svg width="16" height="17" viewBox="0 0 16 17" fill="none" xmlns="http://www.w3.org/2000/svg">
<path d="M8 13.5C10.7614 13.5 13 11.2614 13 8.5C13 5.73858 10.7614 3.5 8 3.5C5.23858 3.5 3 5.73858 3 8.5C3 11.2614 5.23858 13.5 8 13.5Z" fill="#1E1D1C"/>
<path d="M8 15.5C6.61553 15.5 5.26216 15.0895 4.11101 14.3203C2.95987 13.5511 2.06266 12.4579 1.53285 11.1788C1.00303 9.8997 0.86441 8.49224 1.13451 7.13437C1.4046 5.7765 2.07129 4.52922 3.05026 3.55026C4.02922 2.57129 5.2765 1.9046 6.63437 1.63451C7.99224 1.36441 9.3997 1.50303 10.6788 2.03285C11.9579 2.56266 13.0511 3.45987 13.8203 4.61101C14.5895 5.76216 15 7.11553 15 8.5C14.9979 10.3559 14.2597 12.1351 12.9474 13.4474C11.6351 14.7597 9.85587 15.4979 8 15.5ZM8 2.5C6.81332 2.5 5.65328 2.8519 4.66658 3.51119C3.67989 4.17047 2.91085 5.10755 2.45673 6.2039C2.0026 7.30026 1.88378 8.50666 2.11529 9.67054C2.3468 10.8344 2.91825 11.9035 3.75736 12.7426C4.59648 13.5818 5.66558 14.1532 6.82946 14.3847C7.99335 14.6162 9.19975 14.4974 10.2961 14.0433C11.3925 13.5892 12.3295 12.8201 12.9888 11.8334C13.6481 10.8467 14 9.68669 14 8.5C13.9981 6.90927 13.3654 5.38423 12.2406 4.25941C11.1158 3.13459 9.59073 2.50186 8 2.5Z" fill="#1E1D1C"/>
</svg>
