<svg width="355" height="76" viewBox="0 0 355 76" fill="none" xmlns="http://www.w3.org/2000/svg">
<rect x="0.5" y="0.5" width="354" height="75" rx="14.5" stroke="url(#paint0_linear_174_1059)"/>
<path d="M64.912 37.32C66.256 37.7467 67.3013 38.44 68.048 39.4C68.816 40.3387 69.2 41.448 69.2 42.728C69.2 44.072 68.7627 45.2453 67.888 46.248C67.0133 47.2293 65.84 47.9867 64.368 48.52C62.9173 49.0533 61.328 49.32 59.6 49.32C58.1067 49.32 56.6027 49.1173 55.088 48.712C53.5947 48.2853 52.208 47.656 50.928 46.824L52.272 43.784C53.2533 44.4453 54.3413 44.9573 55.536 45.32C56.7307 45.6613 57.9147 45.832 59.088 45.832C60.7733 45.832 62.1707 45.5013 63.28 44.84C64.4107 44.1787 64.976 43.272 64.976 42.12C64.976 41.1387 64.5707 40.392 63.76 39.88C62.9493 39.368 61.8293 39.112 60.4 39.112H55.184V35.848H60.08C61.3173 35.848 62.288 35.592 62.992 35.08C63.696 34.568 64.048 33.8747 64.048 33C64.048 31.9547 63.568 31.144 62.608 30.568C61.6693 29.992 60.464 29.704 58.992 29.704C57.9893 29.704 56.9547 29.8533 55.888 30.152C54.8213 30.4293 53.8187 30.8453 52.88 31.4L51.568 28.04C52.72 27.4213 53.936 26.9627 55.216 26.664C56.5173 26.344 57.808 26.184 59.088 26.184C60.752 26.184 62.2773 26.44 63.664 26.952C65.072 27.464 66.192 28.2 67.024 29.16C67.856 30.0987 68.272 31.208 68.272 32.488C68.272 33.5973 67.9733 34.568 67.376 35.4C66.7787 36.232 65.9573 36.872 64.912 37.32ZM90.1093 31.912V49H86.3013V46.792C85.6399 47.6027 84.8186 48.2107 83.8373 48.616C82.8773 49.0213 81.8106 49.224 80.6373 49.224C78.9733 49.224 77.4799 48.8613 76.1573 48.136C74.8559 47.4107 73.8319 46.3867 73.0853 45.064C72.3599 43.7413 71.9973 42.2053 71.9973 40.456C71.9973 38.7067 72.3599 37.1813 73.0853 35.88C73.8319 34.5573 74.8559 33.5333 76.1573 32.808C77.4799 32.0827 78.9733 31.72 80.6373 31.72C81.7466 31.72 82.7599 31.912 83.6773 32.296C84.6159 32.68 85.4266 33.2453 86.1093 33.992V31.912H90.1093ZM81.0853 45.8C82.5573 45.8 83.7733 45.3093 84.7333 44.328C85.6933 43.3467 86.1733 42.056 86.1733 40.456C86.1733 38.856 85.6933 37.5653 84.7333 36.584C83.7733 35.6027 82.5573 35.112 81.0853 35.112C79.6133 35.112 78.3973 35.6027 77.4373 36.584C76.4986 37.5653 76.0293 38.856 76.0293 40.456C76.0293 42.056 76.4986 43.3467 77.4373 44.328C78.3973 45.3093 79.6133 45.8 81.0853 45.8ZM120.635 31.912V49H116.667V35.304H108.251V49H104.251V31.912H120.635ZM133.648 49.224C131.92 49.224 130.362 48.8507 128.976 48.104C127.589 47.3573 126.501 46.3227 125.712 45C124.944 43.656 124.56 42.1413 124.56 40.456C124.56 38.7707 124.944 37.2667 125.712 35.944C126.501 34.6213 127.589 33.5867 128.976 32.84C130.362 32.0933 131.92 31.72 133.648 31.72C135.397 31.72 136.965 32.0933 138.352 32.84C139.738 33.5867 140.816 34.6213 141.584 35.944C142.373 37.2667 142.768 38.7707 142.768 40.456C142.768 42.1413 142.373 43.656 141.584 45C140.816 46.3227 139.738 47.3573 138.352 48.104C136.965 48.8507 135.397 49.224 133.648 49.224ZM133.648 45.8C135.12 45.8 136.336 45.3093 137.296 44.328C138.256 43.3467 138.736 42.056 138.736 40.456C138.736 38.856 138.256 37.5653 137.296 36.584C136.336 35.6027 135.12 35.112 133.648 35.112C132.176 35.112 130.96 35.6027 130 36.584C129.061 37.5653 128.592 38.856 128.592 40.456C128.592 42.056 129.061 43.3467 130 44.328C130.96 45.3093 132.176 45.8 133.648 45.8ZM153.823 42.152H150.719V49H146.719V31.912H150.719V38.824H153.919L158.975 31.912H163.263L157.055 40.136L163.679 49H158.975L153.823 42.152ZM182.668 31.912V46.408C182.668 52.424 179.713 55.432 173.804 55.432C172.247 55.432 170.753 55.2187 169.324 54.792C167.916 54.3867 166.753 53.7893 165.836 53L167.628 49.992C168.353 50.6107 169.239 51.1013 170.284 51.464C171.329 51.8267 172.428 52.008 173.58 52.008C175.329 52.008 176.609 51.5813 177.42 50.728C178.252 49.896 178.668 48.6053 178.668 46.856V46.056C178.028 46.76 177.249 47.304 176.332 47.688C175.415 48.0507 174.423 48.232 173.356 48.232C171.073 48.232 169.271 47.6027 167.948 46.344C166.647 45.0853 165.996 43.1973 165.996 40.68V31.912H169.996V40.168C169.996 41.6827 170.337 42.824 171.02 43.592C171.724 44.3387 172.716 44.712 173.996 44.712C175.425 44.712 176.556 44.2747 177.388 43.4C178.241 42.5253 178.668 41.256 178.668 39.592V31.912H182.668ZM204.353 31.912V49H200.385V35.304H191.969V49H187.969V31.912H204.353ZM216.855 42.152H213.751V49H209.751V31.912H213.751V38.824H216.951L222.007 31.912H226.295L220.087 40.136L226.711 49H222.007L216.855 42.152ZM245.609 31.912V49H241.801V46.792C241.14 47.6027 240.319 48.2107 239.337 48.616C238.377 49.0213 237.311 49.224 236.137 49.224C234.473 49.224 232.98 48.8613 231.657 48.136C230.356 47.4107 229.332 46.3867 228.585 45.064C227.86 43.7413 227.497 42.2053 227.497 40.456C227.497 38.7067 227.86 37.1813 228.585 35.88C229.332 34.5573 230.356 33.5333 231.657 32.808C232.98 32.0827 234.473 31.72 236.137 31.72C237.247 31.72 238.26 31.912 239.177 32.296C240.116 32.68 240.927 33.2453 241.609 33.992V31.912H245.609ZM236.585 45.8C238.057 45.8 239.273 45.3093 240.233 44.328C241.193 43.3467 241.673 42.056 241.673 40.456C241.673 38.856 241.193 37.5653 240.233 36.584C239.273 35.6027 238.057 35.112 236.585 35.112C235.113 35.112 233.897 35.6027 232.937 36.584C231.999 37.5653 231.529 38.856 231.529 40.456C231.529 42.056 231.999 43.3467 232.937 44.328C233.897 45.3093 235.113 45.8 236.585 45.8ZM267.707 49V37.672L261.947 47.208H260.219L254.555 37.64V49H250.907V31.912H255.099L261.179 42.6L267.547 31.912H271.291L271.323 49H267.707ZM292.88 31.912V49H289.072V46.824C288.432 47.592 287.632 48.1893 286.672 48.616C285.733 49.0213 284.709 49.224 283.6 49.224C281.317 49.224 279.515 48.5947 278.192 47.336C276.869 46.056 276.208 44.168 276.208 41.672V31.912H280.208V41.128C280.208 42.664 280.549 43.816 281.232 44.584C281.936 45.3307 282.939 45.704 284.24 45.704C285.648 45.704 286.768 45.2667 287.6 44.392C288.453 43.496 288.88 42.216 288.88 40.552V31.912H292.88ZM297.706 26.6H302.442L301.642 41.576H298.474L297.706 26.6ZM300.074 49.224C299.327 49.224 298.708 48.9893 298.218 48.52C297.727 48.0293 297.482 47.432 297.482 46.728C297.482 46.024 297.727 45.4373 298.218 44.968C298.708 44.4987 299.327 44.264 300.074 44.264C300.799 44.264 301.396 44.4987 301.866 44.968C302.356 45.4373 302.602 46.024 302.602 46.728C302.602 47.432 302.356 48.0293 301.866 48.52C301.396 48.9893 300.799 49.224 300.074 49.224Z" fill="url(#paint1_linear_174_1059)"/>
<defs>
<linearGradient id="paint0_linear_174_1059" x1="0" y1="38" x2="355" y2="38" gradientUnits="userSpaceOnUse">
<stop stop-color="#FF8964"/>
<stop offset="1" stop-color="#8F7AFF"/>
</linearGradient>
<linearGradient id="paint1_linear_174_1059" x1="50" y1="38" x2="305" y2="38" gradientUnits="userSpaceOnUse">
<stop stop-color="#FF8964"/>
<stop offset="1" stop-color="#8F7AFF"/>
</linearGradient>
</defs>
</svg>
