<svg width="87" height="60" viewBox="0 0 87 60" fill="none" xmlns="http://www.w3.org/2000/svg">
<path d="M49.3332 29.6634L58.2248 20.7734C58.3804 20.6167 58.5715 20.5334 58.7982 20.5234C59.0248 20.5134 59.2265 20.5967 59.4032 20.7734C59.5798 20.9501 59.6687 21.1462 59.6698 21.3617C59.6709 21.5773 59.5821 21.774 59.4032 21.9517L50.2748 31.0801C50.006 31.3501 49.6921 31.4851 49.3332 31.4851C48.9743 31.4851 48.6604 31.3501 48.3915 31.0801L43.9932 26.6817C43.8376 26.5262 43.7543 26.3351 43.7432 26.1084C43.7321 25.8817 43.8154 25.6801 43.9932 25.5034C44.1709 25.3267 44.3676 25.2378 44.5832 25.2367C44.7987 25.2356 44.9954 25.3245 45.1732 25.5034L49.3332 29.6634ZM32.8598 33.3334C32.1187 33.3334 31.4848 33.0695 30.9582 32.5417C30.4315 32.014 30.1676 31.3812 30.1665 30.6434V9.3584C30.1665 8.6184 30.4304 7.98506 30.9582 7.4584C31.4859 6.93173 32.1193 6.66784 32.8582 6.66673H40.5865C40.7421 6.01562 41.0882 5.4684 41.6248 5.02507C42.1615 4.58062 42.7865 4.3584 43.4998 4.3584C44.2265 4.3584 44.8565 4.58062 45.3898 5.02507C45.9232 5.46729 46.2676 6.01451 46.4232 6.66673H54.1398C54.881 6.66673 55.5154 6.93062 56.0432 7.4584C56.5709 7.98618 56.8343 8.61951 56.8332 9.3584V15.8334C56.8332 16.0701 56.7532 16.2678 56.5932 16.4267C56.4332 16.5856 56.2348 16.6656 55.9982 16.6667C55.7615 16.6678 55.5637 16.5878 55.4048 16.4267C55.2459 16.2656 55.1665 16.0678 55.1665 15.8334V9.36006C55.1665 9.1034 55.0598 8.86784 54.8465 8.6534C54.6332 8.43895 54.3976 8.33229 54.1398 8.3334H50.1665V10.7051C50.1665 11.0862 50.0387 11.4062 49.7832 11.6651C49.5276 11.924 49.2109 12.0528 48.8332 12.0517H38.1665C37.7887 12.0517 37.4721 11.9228 37.2165 11.6651C36.9609 11.4073 36.8332 11.0873 36.8332 10.7051V8.3334H32.8598C32.6032 8.3334 32.3676 8.44006 32.1532 8.6534C31.9387 8.86673 31.8321 9.10229 31.8332 9.36006V30.6417C31.8332 30.8973 31.9398 31.1323 32.1532 31.3467C32.3665 31.5612 32.6015 31.6678 32.8582 31.6667H40.9998C41.2365 31.6667 41.4343 31.7467 41.5932 31.9067C41.7521 32.0667 41.8321 32.2651 41.8332 32.5017C41.8343 32.7384 41.7543 32.9362 41.5932 33.0951C41.4321 33.254 41.2343 33.3334 40.9998 33.3334H32.8598ZM43.5048 8.71673C43.8882 8.71673 44.2076 8.58784 44.4632 8.33007C44.7187 8.07118 44.8465 7.75006 44.8465 7.36673C44.8465 6.9834 44.7171 6.66395 44.4582 6.4084C44.1993 6.15284 43.8782 6.02506 43.4948 6.02506C43.1115 6.02506 42.7921 6.15506 42.5365 6.41506C42.2809 6.67506 42.1532 6.99618 42.1532 7.3784C42.1532 7.76062 42.2832 8.07951 42.5432 8.33506C42.8032 8.59062 43.1237 8.71673 43.5048 8.71673Z" fill="white"/>
<path d="M1.616 56V47.6H2.752V54.272L8.368 47.6H9.376V56H8.24V49.312L2.64 56H1.616ZM12.3116 56V47.6H13.4476V51.312H18.7436V47.6H19.8796V56H18.7436V52.288H13.4476V56H12.3116ZM22.7885 56V47.6H26.5005C27.4498 47.6 28.1965 47.7813 28.7405 48.144C29.2952 48.5067 29.5725 49.04 29.5725 49.744C29.5725 50.4267 29.3112 50.9547 28.7885 51.328C28.2658 51.6907 27.5778 51.872 26.7245 51.872L26.9485 51.536C27.9512 51.536 28.6872 51.7227 29.1565 52.096C29.6258 52.4693 29.8605 53.008 29.8605 53.712C29.8605 54.4373 29.5938 55.0027 29.0605 55.408C28.5378 55.8027 27.7218 56 26.6125 56H22.7885ZM23.8925 55.104H26.5645C27.2792 55.104 27.8178 54.992 28.1805 54.768C28.5538 54.5333 28.7405 54.16 28.7405 53.648C28.7405 53.136 28.5752 52.7627 28.2445 52.528C27.9138 52.2933 27.3912 52.176 26.6765 52.176H23.8925V55.104ZM23.8925 51.328H26.4205C27.0712 51.328 27.5672 51.2053 27.9085 50.96C28.2605 50.7147 28.4365 50.3573 28.4365 49.888C28.4365 49.4187 28.2605 49.0667 27.9085 48.832C27.5672 48.5973 27.0712 48.48 26.4205 48.48H23.8925V51.328ZM35.8029 56.08C34.9282 56.08 34.1602 55.8987 33.4989 55.536C32.8375 55.1627 32.3202 54.656 31.9469 54.016C31.5735 53.3653 31.3869 52.624 31.3869 51.792C31.3869 50.96 31.5629 50.224 31.9149 49.584C32.2775 48.944 32.7682 48.4427 33.3869 48.08C34.0162 47.7067 34.7202 47.52 35.4989 47.52C36.2882 47.52 36.9869 47.7013 37.5949 48.064C38.2135 48.416 38.6989 48.9173 39.0509 49.568C39.4029 50.208 39.5789 50.9493 39.5789 51.792C39.5789 51.8453 39.5735 51.904 39.5629 51.968C39.5629 52.0213 39.5629 52.08 39.5629 52.144H32.2509V51.296H38.9549L38.5069 51.632C38.5069 51.024 38.3735 50.4853 38.1069 50.016C37.8509 49.536 37.4989 49.1627 37.0509 48.896C36.6029 48.6293 36.0855 48.496 35.4989 48.496C34.9229 48.496 34.4055 48.6293 33.9469 48.896C33.4882 49.1627 33.1309 49.536 32.8749 50.016C32.6189 50.496 32.4909 51.0453 32.4909 51.664V51.84C32.4909 52.48 32.6295 53.0453 32.9069 53.536C33.1949 54.016 33.5895 54.3947 34.0909 54.672C34.6029 54.9387 35.1842 55.072 35.8349 55.072C36.3469 55.072 36.8215 54.9813 37.2589 54.8C37.7069 54.6187 38.0909 54.3413 38.4109 53.968L39.0509 54.704C38.6775 55.152 38.2082 55.4933 37.6429 55.728C37.0882 55.9627 36.4749 56.08 35.8029 56.08ZM41.7735 56V47.6H42.9095V51.312H48.2055V47.6H49.3415V56H48.2055V52.288H42.9095V56H41.7735ZM53.8504 56V48.288L54.1384 48.592H50.6664V47.6H58.1704V48.592H54.6984L54.9864 48.288V56H53.8504ZM64.7089 56V54.144L64.6609 53.84V50.736C64.6609 50.0213 64.4582 49.472 64.0529 49.088C63.6582 48.704 63.0662 48.512 62.2769 48.512C61.7329 48.512 61.2155 48.6027 60.7249 48.784C60.2342 48.9653 59.8182 49.2053 59.4769 49.504L58.9649 48.656C59.3915 48.2933 59.9035 48.016 60.5009 47.824C61.0982 47.6213 61.7275 47.52 62.3889 47.52C63.4769 47.52 64.3142 47.792 64.9009 48.336C65.4982 48.8693 65.7969 49.6853 65.7969 50.784V56H64.7089ZM61.8129 56.08C61.1835 56.08 60.6342 55.9787 60.1649 55.776C59.7062 55.5627 59.3542 55.2747 59.1089 54.912C58.8635 54.5387 58.7409 54.112 58.7409 53.632C58.7409 53.1947 58.8422 52.8 59.0449 52.448C59.2582 52.0853 59.5995 51.7973 60.0689 51.584C60.5489 51.36 61.1889 51.248 61.9889 51.248H64.8849V52.096H62.0209C61.2102 52.096 60.6449 52.24 60.3249 52.528C60.0155 52.816 59.8609 53.1733 59.8609 53.6C59.8609 54.08 60.0475 54.464 60.4209 54.752C60.7942 55.04 61.3169 55.184 61.9889 55.184C62.6289 55.184 63.1782 55.04 63.6369 54.752C64.1062 54.4533 64.4475 54.0267 64.6609 53.472L64.9169 54.256C64.7035 54.8107 64.3302 55.2533 63.7969 55.584C63.2742 55.9147 62.6129 56.08 61.8129 56.08ZM72.837 56.08C72.1117 56.08 71.4557 55.9147 70.869 55.584C70.2823 55.2427 69.813 54.7573 69.461 54.128C69.1197 53.488 68.949 52.7093 68.949 51.792C68.949 50.8747 69.1197 50.1013 69.461 49.472C69.8023 48.832 70.2663 48.3467 70.853 48.016C71.4397 47.6853 72.101 47.52 72.837 47.52C73.637 47.52 74.3517 47.7013 74.981 48.064C75.621 48.416 76.1223 48.9173 76.485 49.568C76.8477 50.208 77.029 50.9493 77.029 51.792C77.029 52.6453 76.8477 53.392 76.485 54.032C76.1223 54.672 75.621 55.1733 74.981 55.536C74.3517 55.8987 73.637 56.08 72.837 56.08ZM68.501 59.104V47.6H69.589V50.128L69.477 51.808L69.637 53.504V59.104H68.501ZM72.757 55.072C73.3543 55.072 73.8877 54.9387 74.357 54.672C74.8263 54.3947 75.1997 54.0107 75.477 53.52C75.7543 53.0187 75.893 52.4427 75.893 51.792C75.893 51.1413 75.7543 50.5707 75.477 50.08C75.1997 49.5893 74.8263 49.2053 74.357 48.928C73.8877 48.6507 73.3543 48.512 72.757 48.512C72.1597 48.512 71.621 48.6507 71.141 48.928C70.6717 49.2053 70.2983 49.5893 70.021 50.08C69.7543 50.5707 69.621 51.1413 69.621 51.792C69.621 52.4427 69.7543 53.0187 70.021 53.52C70.2983 54.0107 70.6717 54.3947 71.141 54.672C71.621 54.9387 72.1597 55.072 72.757 55.072ZM82.7658 50.56C83.8218 50.5707 84.6218 50.8053 85.1658 51.264C85.7204 51.7227 85.9978 52.384 85.9978 53.248C85.9978 54.144 85.6991 54.832 85.1018 55.312C84.5151 55.792 83.6618 56.0267 82.5418 56.016L79.1498 56V47.6H80.2858V50.528L82.7658 50.56ZM82.4778 55.152C83.2564 55.1627 83.8431 55.008 84.2378 54.688C84.6431 54.3573 84.8458 53.8773 84.8458 53.248C84.8458 52.6187 84.6484 52.16 84.2538 51.872C83.8591 51.5733 83.2671 51.4187 82.4778 51.408L80.2858 51.376V55.12L82.4778 55.152Z" fill="#8A8989"/>
</svg>
