<svg width="84" height="23" viewBox="0 0 84 23" fill="none" xmlns="http://www.w3.org/2000/svg">
<rect width="84" height="23" rx="5" fill="#05DA73"/>
<path d="M7.488 17V8.52H15.344V17H13.808V9.48L14.176 9.864H8.656L9.024 9.48V17H7.488ZM21.9481 17.096C21.0948 17.096 20.3375 16.9093 19.6761 16.536C19.0148 16.1627 18.4921 15.6507 18.1081 15C17.7241 14.3387 17.5321 13.592 17.5321 12.76C17.5321 11.9173 17.7241 11.1707 18.1081 10.52C18.4921 9.86933 19.0148 9.36267 19.6761 9C20.3375 8.62667 21.0948 8.44 21.9481 8.44C22.7908 8.44 23.5428 8.62667 24.2041 9C24.8761 9.36267 25.3988 9.86933 25.7721 10.52C26.1561 11.16 26.3481 11.9067 26.3481 12.76C26.3481 13.6027 26.1561 14.3493 25.7721 15C25.3988 15.6507 24.8761 16.1627 24.2041 16.536C23.5428 16.9093 22.7908 17.096 21.9481 17.096ZM21.9481 15.752C22.4921 15.752 22.9775 15.6293 23.4041 15.384C23.8415 15.1387 24.1828 14.792 24.4281 14.344C24.6735 13.8853 24.7961 13.3573 24.7961 12.76C24.7961 12.152 24.6735 11.6293 24.4281 11.192C24.1828 10.744 23.8415 10.3973 23.4041 10.152C22.9775 9.90667 22.4921 9.784 21.9481 9.784C21.4041 9.784 20.9188 9.90667 20.4921 10.152C20.0655 10.3973 19.7241 10.744 19.4681 11.192C19.2121 11.6293 19.0841 12.152 19.0841 12.76C19.0841 13.3573 19.2121 13.8853 19.4681 14.344C19.7241 14.792 20.0655 15.1387 20.4921 15.384C20.9188 15.6293 21.4041 15.752 21.9481 15.752ZM27.0956 16.984L27.1916 15.688C27.2663 15.6987 27.3356 15.7093 27.3996 15.72C27.4636 15.7307 27.5223 15.736 27.5756 15.736C27.917 15.736 28.1836 15.6187 28.3756 15.384C28.5783 15.1493 28.7276 14.84 28.8236 14.456C28.9196 14.0613 28.989 13.6187 29.0316 13.128C29.0743 12.6373 29.1063 12.1467 29.1276 11.656L29.2716 8.52H35.7836V17H34.2476V9.416L34.6156 9.864H30.2636L30.6156 9.4L30.5036 11.752C30.4716 12.4987 30.413 13.1973 30.3276 13.848C30.2423 14.4987 30.109 15.0693 29.9276 15.56C29.757 16.0507 29.517 16.4347 29.2076 16.712C28.909 16.9893 28.5196 17.128 28.0396 17.128C27.901 17.128 27.7516 17.112 27.5916 17.08C27.4423 17.0587 27.277 17.0267 27.0956 16.984ZM39.1856 20.2C38.7803 20.2 38.3856 20.1307 38.0016 19.992C37.6176 19.864 37.287 19.672 37.0096 19.416L37.6656 18.264C37.879 18.4667 38.1136 18.6213 38.3696 18.728C38.6256 18.8347 38.8976 18.888 39.1856 18.888C39.559 18.888 39.8683 18.792 40.1136 18.6C40.359 18.408 40.5883 18.0667 40.8016 17.576L41.3296 16.408L41.4896 16.216L44.8176 8.52H46.3216L42.2096 17.848C41.9643 18.4453 41.687 18.9147 41.3776 19.256C41.079 19.5973 40.7483 19.8373 40.3856 19.976C40.023 20.1253 39.623 20.2 39.1856 20.2ZM41.2016 17.272L37.3296 8.52H38.9296L42.2256 16.072L41.2016 17.272ZM53.2383 13.528C52.7903 13.7413 52.3263 13.912 51.8463 14.04C51.3769 14.1573 50.8916 14.216 50.3903 14.216C49.3663 14.216 48.5556 13.976 47.9583 13.496C47.3716 13.016 47.0783 12.2747 47.0783 11.272V8.52H48.6143V11.176C48.6143 11.784 48.8009 12.232 49.1743 12.52C49.5583 12.808 50.0703 12.952 50.7103 12.952C51.1156 12.952 51.5316 12.8987 51.9583 12.792C52.3956 12.6853 52.8223 12.536 53.2383 12.344V13.528ZM53.1263 17V8.52H54.6623V17H53.1263ZM61.4203 17.096C60.5136 17.096 59.7136 16.9093 59.0203 16.536C58.3376 16.1627 57.8043 15.6507 57.4203 15C57.0469 14.3493 56.8603 13.6027 56.8603 12.76C56.8603 11.9173 57.0416 11.1707 57.4043 10.52C57.7776 9.86933 58.2843 9.36267 58.9243 9C59.5749 8.62667 60.3056 8.44 61.1163 8.44C61.9376 8.44 62.6629 8.62133 63.2923 8.984C63.9216 9.34667 64.4123 9.85867 64.7643 10.52C65.1269 11.1707 65.3083 11.9333 65.3083 12.808C65.3083 12.872 65.3029 12.9467 65.2923 13.032C65.2923 13.1173 65.2869 13.1973 65.2763 13.272H58.0603V12.168H64.4763L63.8523 12.552C63.8629 12.008 63.7509 11.5227 63.5163 11.096C63.2816 10.6693 62.9563 10.3387 62.5403 10.104C62.1349 9.85867 61.6603 9.736 61.1163 9.736C60.5829 9.736 60.1083 9.85867 59.6923 10.104C59.2763 10.3387 58.9509 10.6747 58.7163 11.112C58.4816 11.5387 58.3643 12.0293 58.3643 12.584V12.84C58.3643 13.4053 58.4923 13.912 58.7483 14.36C59.0149 14.7973 59.3829 15.1387 59.8523 15.384C60.3216 15.6293 60.8603 15.752 61.4683 15.752C61.9696 15.752 62.4229 15.6667 62.8283 15.496C63.2443 15.3253 63.6069 15.0693 63.9163 14.728L64.7643 15.72C64.3803 16.168 63.9003 16.5093 63.3243 16.744C62.7589 16.9787 62.1243 17.096 61.4203 17.096ZM67.6911 17V8.52H69.2271V12.12H74.0591V8.52H75.5951V17H74.0591V13.448H69.2271V17H67.6911Z" fill="#1E1D1C"/>
</svg>
