<svg width="104" height="60" viewBox="0 0 104 60" fill="none" xmlns="http://www.w3.org/2000/svg">
<mask id="mask0_774_1229" style="mask-type:alpha" maskUnits="userSpaceOnUse" x="3" y="0" width="101" height="31">
<path d="M7.43075 8.64221V30.2477H3.05078V8.64221H7.43075ZM7.43075 0V4.32111H3.05078V0H7.43075Z" fill="#05DA73"/>
<path d="M7.43075 8.64221V30.2477H3.05078V8.64221H7.43075ZM7.43075 0V4.32111H3.05078V0H7.43075Z" fill="url(#paint0_linear_774_1229)" fill-opacity="0.2"/>
<path d="M7.43075 8.64221V30.2477H3.05078V8.64221H7.43075ZM7.43075 0V4.32111H3.05078V0H7.43075Z" fill="black" fill-opacity="0.2"/>
<path d="M33.0516 21.6057V25.9268H28.6717V21.6057H33.0516ZM19.9118 4.32129V30.2479H18.6416C17.7364 30.2479 16.9918 29.9598 16.4078 29.3837C15.8238 28.8075 15.5318 28.0729 15.5318 27.1799V4.32129H19.9118ZM28.6717 25.9268V30.2479H19.9118V25.9268H28.6717ZM28.6717 8.64239V12.9635H11.1519V8.64239H28.6717Z" fill="#05DA73"/>
<path d="M33.0516 21.6057V25.9268H28.6717V21.6057H33.0516ZM19.9118 4.32129V30.2479H18.6416C17.7364 30.2479 16.9918 29.9598 16.4078 29.3837C15.8238 28.8075 15.5318 28.0729 15.5318 27.1799V4.32129H19.9118ZM28.6717 25.9268V30.2479H19.9118V25.9268H28.6717ZM28.6717 8.64239V12.9635H11.1519V8.64239H28.6717Z" fill="url(#paint1_linear_774_1229)" fill-opacity="0.2"/>
<path d="M33.0516 21.6057V25.9268H28.6717V21.6057H33.0516ZM19.9118 4.32129V30.2479H18.6416C17.7364 30.2479 16.9918 29.9598 16.4078 29.3837C15.8238 28.8075 15.5318 28.0729 15.5318 27.1799V4.32129H19.9118ZM28.6717 25.9268V30.2479H19.9118V25.9268H28.6717ZM28.6717 8.64239V12.9635H11.1519V8.64239H28.6717Z" fill="black" fill-opacity="0.2"/>
<path d="M52.9943 8.64207H57.3746V30.2476H52.9943V8.64207ZM35.4746 17.0682C35.4746 15.2245 35.9564 13.6401 36.92 12.315C37.8836 10.9899 39.1976 9.98161 40.862 9.29024C42.5555 8.57004 44.4243 8.20996 46.4683 8.20996C48.4829 8.20996 50.3228 8.57004 51.9869 9.29024C53.6513 9.98161 54.9654 10.9899 55.929 12.315C56.8926 13.6401 57.3746 15.2245 57.3746 17.0682V21.3461C57.3746 23.1897 56.8926 24.7886 55.929 26.1425C54.9654 27.4676 53.6513 28.4903 51.9869 29.2105C50.3228 29.9019 48.4829 30.2476 46.4683 30.2476C44.4243 30.2476 42.5555 29.9019 40.862 29.2105C39.1976 28.4903 37.8836 27.4676 36.92 26.1425C35.9564 24.7886 35.4746 23.1897 35.4746 21.3461V17.0682ZM39.8545 20.7412C39.8545 22.6712 40.5262 24.0252 41.8694 24.803C43.2417 25.552 44.7747 25.9265 46.4683 25.9265C48.1036 25.9265 49.5926 25.552 50.936 24.803C52.279 24.0252 52.9505 22.6712 52.9505 20.7412V17.6732C52.9505 15.7431 52.279 14.4035 50.936 13.6545C49.622 12.9055 48.1325 12.5311 46.4683 12.5311C44.7747 12.5311 43.2417 12.9055 41.8694 13.6545C40.5262 14.4035 39.8545 15.7431 39.8545 17.6732V20.7412ZM48.6145 17.0682V21.3893H44.2345V17.0682H48.6145Z" fill="#05DA73"/>
<path d="M52.9943 8.64207H57.3746V30.2476H52.9943V8.64207ZM35.4746 17.0682C35.4746 15.2245 35.9564 13.6401 36.92 12.315C37.8836 10.9899 39.1976 9.98161 40.862 9.29024C42.5555 8.57004 44.4243 8.20996 46.4683 8.20996C48.4829 8.20996 50.3228 8.57004 51.9869 9.29024C53.6513 9.98161 54.9654 10.9899 55.929 12.315C56.8926 13.6401 57.3746 15.2245 57.3746 17.0682V21.3461C57.3746 23.1897 56.8926 24.7886 55.929 26.1425C54.9654 27.4676 53.6513 28.4903 51.9869 29.2105C50.3228 29.9019 48.4829 30.2476 46.4683 30.2476C44.4243 30.2476 42.5555 29.9019 40.862 29.2105C39.1976 28.4903 37.8836 27.4676 36.92 26.1425C35.9564 24.7886 35.4746 23.1897 35.4746 21.3461V17.0682ZM39.8545 20.7412C39.8545 22.6712 40.5262 24.0252 41.8694 24.803C43.2417 25.552 44.7747 25.9265 46.4683 25.9265C48.1036 25.9265 49.5926 25.552 50.936 24.803C52.279 24.0252 52.9505 22.6712 52.9505 20.7412V17.6732C52.9505 15.7431 52.279 14.4035 50.936 13.6545C49.622 12.9055 48.1325 12.5311 46.4683 12.5311C44.7747 12.5311 43.2417 12.9055 41.8694 13.6545C40.5262 14.4035 39.8545 15.7431 39.8545 17.6732V20.7412ZM48.6145 17.0682V21.3893H44.2345V17.0682H48.6145Z" fill="url(#paint2_linear_774_1229)" fill-opacity="0.2"/>
<path d="M52.9943 8.64207H57.3746V30.2476H52.9943V8.64207ZM35.4746 17.0682C35.4746 15.2245 35.9564 13.6401 36.92 12.315C37.8836 10.9899 39.1976 9.98161 40.862 9.29024C42.5555 8.57004 44.4243 8.20996 46.4683 8.20996C48.4829 8.20996 50.3228 8.57004 51.9869 9.29024C53.6513 9.98161 54.9654 10.9899 55.929 12.315C56.8926 13.6401 57.3746 15.2245 57.3746 17.0682V21.3461C57.3746 23.1897 56.8926 24.7886 55.929 26.1425C54.9654 27.4676 53.6513 28.4903 51.9869 29.2105C50.3228 29.9019 48.4829 30.2476 46.4683 30.2476C44.4243 30.2476 42.5555 29.9019 40.862 29.2105C39.1976 28.4903 37.8836 27.4676 36.92 26.1425C35.9564 24.7886 35.4746 23.1897 35.4746 21.3461V17.0682ZM39.8545 20.7412C39.8545 22.6712 40.5262 24.0252 41.8694 24.803C43.2417 25.552 44.7747 25.9265 46.4683 25.9265C48.1036 25.9265 49.5926 25.552 50.936 24.803C52.279 24.0252 52.9505 22.6712 52.9505 20.7412V17.6732C52.9505 15.7431 52.279 14.4035 50.936 13.6545C49.622 12.9055 48.1325 12.5311 46.4683 12.5311C44.7747 12.5311 43.2417 12.9055 41.8694 13.6545C40.5262 14.4035 39.8545 15.7431 39.8545 17.6732V20.7412ZM48.6145 17.0682V21.3893H44.2345V17.0682H48.6145Z" fill="black" fill-opacity="0.2"/>
<path d="M81.151 18.149C81.151 16.2189 80.4795 14.8794 79.1361 14.1304C77.7931 13.3526 76.3036 12.9637 74.6686 12.9637C72.9752 12.9637 71.4418 13.3526 70.0695 14.1304C68.7265 14.8794 68.055 16.2189 68.055 18.149V21.217L63.6748 21.8219V17.544C63.6748 15.7004 64.1568 14.1159 65.1204 12.7908C66.0839 11.4369 67.398 10.4142 69.0624 9.72285C70.7559 9.00266 72.6247 8.64258 74.6686 8.64258C76.6835 8.64258 78.5085 9.00266 80.1435 9.72285C81.808 10.4142 83.122 11.4369 84.0856 12.7908C85.0492 14.1159 85.5308 15.7004 85.5308 17.544V30.2481H81.151V18.149ZM68.055 16.8527V30.2481H63.6748V16.8527H68.055ZM103.051 25.927V30.2481H98.6707V25.927H103.051ZM98.6268 18.149C98.6268 16.2189 97.9553 14.8794 96.6123 14.1304C95.2689 13.3526 93.7799 12.9637 92.1448 12.9637C90.451 12.9637 88.9181 13.3526 87.5457 14.1304C86.1733 14.8794 85.4869 16.2189 85.4869 18.149V21.217L81.151 21.8219V17.544C81.151 15.7004 81.6326 14.1159 82.5962 12.7908C83.5598 11.4369 84.8738 10.4142 86.5383 9.72285C88.2317 9.00266 90.1005 8.64258 92.1448 8.64258C94.1593 8.64258 95.9992 9.00266 97.6632 9.72285C99.3277 10.4142 100.642 11.4369 101.605 12.7908C102.569 14.1159 103.051 15.7004 103.051 17.544V25.927H98.6268V18.149ZM65.0326 8.64258V12.9637H60.6528V8.64258H65.0326Z" fill="#05DA73"/>
<path d="M81.151 18.149C81.151 16.2189 80.4795 14.8794 79.1361 14.1304C77.7931 13.3526 76.3036 12.9637 74.6686 12.9637C72.9752 12.9637 71.4418 13.3526 70.0695 14.1304C68.7265 14.8794 68.055 16.2189 68.055 18.149V21.217L63.6748 21.8219V17.544C63.6748 15.7004 64.1568 14.1159 65.1204 12.7908C66.0839 11.4369 67.398 10.4142 69.0624 9.72285C70.7559 9.00266 72.6247 8.64258 74.6686 8.64258C76.6835 8.64258 78.5085 9.00266 80.1435 9.72285C81.808 10.4142 83.122 11.4369 84.0856 12.7908C85.0492 14.1159 85.5308 15.7004 85.5308 17.544V30.2481H81.151V18.149ZM68.055 16.8527V30.2481H63.6748V16.8527H68.055ZM103.051 25.927V30.2481H98.6707V25.927H103.051ZM98.6268 18.149C98.6268 16.2189 97.9553 14.8794 96.6123 14.1304C95.2689 13.3526 93.7799 12.9637 92.1448 12.9637C90.451 12.9637 88.9181 13.3526 87.5457 14.1304C86.1733 14.8794 85.4869 16.2189 85.4869 18.149V21.217L81.151 21.8219V17.544C81.151 15.7004 81.6326 14.1159 82.5962 12.7908C83.5598 11.4369 84.8738 10.4142 86.5383 9.72285C88.2317 9.00266 90.1005 8.64258 92.1448 8.64258C94.1593 8.64258 95.9992 9.00266 97.6632 9.72285C99.3277 10.4142 100.642 11.4369 101.605 12.7908C102.569 14.1159 103.051 15.7004 103.051 17.544V25.927H98.6268V18.149ZM65.0326 8.64258V12.9637H60.6528V8.64258H65.0326Z" fill="url(#paint3_linear_774_1229)" fill-opacity="0.2"/>
<path d="M81.151 18.149C81.151 16.2189 80.4795 14.8794 79.1361 14.1304C77.7931 13.3526 76.3036 12.9637 74.6686 12.9637C72.9752 12.9637 71.4418 13.3526 70.0695 14.1304C68.7265 14.8794 68.055 16.2189 68.055 18.149V21.217L63.6748 21.8219V17.544C63.6748 15.7004 64.1568 14.1159 65.1204 12.7908C66.0839 11.4369 67.398 10.4142 69.0624 9.72285C70.7559 9.00266 72.6247 8.64258 74.6686 8.64258C76.6835 8.64258 78.5085 9.00266 80.1435 9.72285C81.808 10.4142 83.122 11.4369 84.0856 12.7908C85.0492 14.1159 85.5308 15.7004 85.5308 17.544V30.2481H81.151V18.149ZM68.055 16.8527V30.2481H63.6748V16.8527H68.055ZM103.051 25.927V30.2481H98.6707V25.927H103.051ZM98.6268 18.149C98.6268 16.2189 97.9553 14.8794 96.6123 14.1304C95.2689 13.3526 93.7799 12.9637 92.1448 12.9637C90.451 12.9637 88.9181 13.3526 87.5457 14.1304C86.1733 14.8794 85.4869 16.2189 85.4869 18.149V21.217L81.151 21.8219V17.544C81.151 15.7004 81.6326 14.1159 82.5962 12.7908C83.5598 11.4369 84.8738 10.4142 86.5383 9.72285C88.2317 9.00266 90.1005 8.64258 92.1448 8.64258C94.1593 8.64258 95.9992 9.00266 97.6632 9.72285C99.3277 10.4142 100.642 11.4369 101.605 12.7908C102.569 14.1159 103.051 15.7004 103.051 17.544V25.927H98.6268V18.149ZM65.0326 8.64258V12.9637H60.6528V8.64258H65.0326Z" fill="black" fill-opacity="0.2"/>
</mask>
<g mask="url(#mask0_774_1229)">
<rect x="-6.33203" y="-8.07715" width="118.763" height="46.3601" fill="url(#paint4_linear_774_1229)"/>
</g>
<path d="M16.224 41.2327V53.7607H15.12V43.1527L9.672 52.1527H9.12L3.696 43.1767V53.7607H2.592V41.2327H3.768L9.432 50.7127L15.12 41.2327H16.224ZM32.0203 41.2327V53.7607H30.8443V50.8087C30.3483 51.7847 29.6523 52.5367 28.7563 53.0647C27.8603 53.5927 26.8443 53.8567 25.7083 53.8567C24.5403 53.8567 23.4843 53.5847 22.5403 53.0407C21.5963 52.4967 20.8523 51.7447 20.3083 50.7847C19.7803 49.8247 19.5163 48.7287 19.5163 47.4967C19.5163 46.2647 19.7803 45.1687 20.3083 44.2087C20.8523 43.2327 21.5963 42.4807 22.5403 41.9527C23.4843 41.4087 24.5403 41.1367 25.7083 41.1367C26.8283 41.1367 27.8283 41.4007 28.7083 41.9287C29.6043 42.4567 30.3083 43.1927 30.8203 44.1367V41.2327H32.0203ZM25.7803 52.7767C26.7403 52.7767 27.5963 52.5527 28.3483 52.1047C29.1163 51.6567 29.7163 51.0327 30.1483 50.2327C30.5963 49.4327 30.8203 48.5207 30.8203 47.4967C30.8203 46.4727 30.5963 45.5607 30.1483 44.7607C29.7163 43.9607 29.1163 43.3367 28.3483 42.8887C27.5963 42.4407 26.7403 42.2167 25.7803 42.2167C24.8203 42.2167 23.9563 42.4407 23.1883 42.8887C22.4363 43.3367 21.8363 43.9607 21.3883 44.7607C20.9563 45.5607 20.7403 46.4727 20.7403 47.4967C20.7403 48.5207 20.9563 49.4327 21.3883 50.2327C21.8363 51.0327 22.4363 51.6567 23.1883 52.1047C23.9563 52.5527 24.8203 52.7767 25.7803 52.7767ZM45.2156 42.3127H37.8476V53.7607H36.6476V41.2327H45.2156V42.3127ZM57.8025 41.2327V53.7607H56.6265V50.8087C56.1305 51.7847 55.4345 52.5367 54.5385 53.0647C53.6425 53.5927 52.6265 53.8567 51.4905 53.8567C50.3225 53.8567 49.2665 53.5847 48.3225 53.0407C47.3785 52.4967 46.6345 51.7447 46.0905 50.7847C45.5625 49.8247 45.2985 48.7287 45.2985 47.4967C45.2985 46.2647 45.5625 45.1687 46.0905 44.2087C46.6345 43.2327 47.3785 42.4807 48.3225 41.9527C49.2665 41.4087 50.3225 41.1367 51.4905 41.1367C52.6105 41.1367 53.6105 41.4007 54.4905 41.9287C55.3865 42.4567 56.0905 43.1927 56.6025 44.1367V41.2327H57.8025ZM51.5625 52.7767C52.5225 52.7767 53.3785 52.5527 54.1305 52.1047C54.8985 51.6567 55.4985 51.0327 55.9305 50.2327C56.3785 49.4327 56.6025 48.5207 56.6025 47.4967C56.6025 46.4727 56.3785 45.5607 55.9305 44.7607C55.4985 43.9607 54.8985 43.3367 54.1305 42.8887C53.3785 42.4407 52.5225 42.2167 51.5625 42.2167C50.6025 42.2167 49.7385 42.4407 48.9705 42.8887C48.2185 43.3367 47.6185 43.9607 47.1705 44.7607C46.7385 45.5607 46.5225 46.4727 46.5225 47.4967C46.5225 48.5207 46.7385 49.4327 47.1705 50.2327C47.6185 51.0327 48.2185 51.6567 48.9705 52.1047C49.7385 52.5527 50.6025 52.7767 51.5625 52.7767ZM67.6691 47.2327C68.5971 47.4087 69.3091 47.7607 69.8051 48.2887C70.3171 48.8007 70.5731 49.4327 70.5731 50.1847C70.5731 50.9207 70.3251 51.5687 69.8291 52.1287C69.3491 52.6887 68.6931 53.1207 67.8611 53.4247C67.0291 53.7287 66.1251 53.8807 65.1491 53.8807C64.2531 53.8807 63.3731 53.7447 62.5091 53.4727C61.6611 53.1847 60.9171 52.7767 60.2771 52.2487L60.7571 51.3607C61.3171 51.8407 61.9811 52.2087 62.7491 52.4647C63.5331 52.7207 64.3251 52.8487 65.1251 52.8487C66.3091 52.8487 67.3091 52.6007 68.1251 52.1047C68.9411 51.5927 69.3491 50.9207 69.3491 50.0887C69.3491 49.3527 69.0051 48.7767 68.3171 48.3607C67.6451 47.9287 66.7331 47.7127 65.5811 47.7127H63.5651V46.8007H65.5331C66.5411 46.8007 67.3651 46.6007 68.0051 46.2007C68.6611 45.8007 68.9891 45.2647 68.9891 44.5927C68.9891 43.8087 68.6291 43.2087 67.9091 42.7927C67.2051 42.3607 66.3011 42.1447 65.1971 42.1447C63.7891 42.1447 62.4611 42.5047 61.2131 43.2247L60.8531 42.2647C62.2611 41.4807 63.7571 41.0887 65.3411 41.0887C66.7331 41.0887 67.8931 41.3927 68.8211 42.0007C69.7491 42.5927 70.2131 43.4007 70.2131 44.4247C70.2131 45.0807 69.9811 45.6567 69.5171 46.1527C69.0531 46.6487 68.4371 47.0087 67.6691 47.2327ZM84.9819 41.2327V53.7607H83.8059V51.1207C83.3739 51.9847 82.7499 52.6567 81.9339 53.1367C81.1339 53.6167 80.1899 53.8567 79.1019 53.8567C77.4699 53.8567 76.1819 53.4087 75.2379 52.5127C74.3099 51.6007 73.8459 50.2807 73.8459 48.5527V41.2327H75.0459V48.4567C75.0459 49.8647 75.4059 50.9367 76.1259 51.6727C76.8459 52.4087 77.8619 52.7767 79.1739 52.7767C80.5819 52.7767 81.7019 52.3367 82.5339 51.4567C83.3659 50.5767 83.7819 49.3927 83.7819 47.9047V41.2327H84.9819ZM89.6651 41.2327H90.8651V46.9447H99.3611V41.2327H100.561V53.7607H99.3611V48.0007H90.8651V53.7607H89.6651V41.2327Z" fill="white"/>
<defs>
<linearGradient id="paint0_linear_774_1229" x1="3.05078" y1="15.1239" x2="7.43075" y2="15.1239" gradientUnits="userSpaceOnUse">
<stop stop-opacity="0"/>
<stop offset="1"/>
</linearGradient>
<linearGradient id="paint1_linear_774_1229" x1="11.1519" y1="17.2846" x2="33.0516" y2="17.2846" gradientUnits="userSpaceOnUse">
<stop stop-opacity="0"/>
<stop offset="1"/>
</linearGradient>
<linearGradient id="paint2_linear_774_1229" x1="35.4746" y1="19.2288" x2="57.3746" y2="19.2288" gradientUnits="userSpaceOnUse">
<stop stop-opacity="0"/>
<stop offset="1"/>
</linearGradient>
<linearGradient id="paint3_linear_774_1229" x1="60.6528" y1="19.4453" x2="103.051" y2="19.4453" gradientUnits="userSpaceOnUse">
<stop stop-opacity="0"/>
<stop offset="1"/>
</linearGradient>
<linearGradient id="paint4_linear_774_1229" x1="-6.33203" y1="-12.274" x2="116.252" y2="36.3875" gradientUnits="userSpaceOnUse">
<stop offset="0.02" stop-color="#FF8964"/>
<stop offset="0.15" stop-color="#FFD951"/>
<stop offset="0.3" stop-color="#B0F254"/>
<stop offset="0.397368" stop-color="#88FF55"/>
<stop offset="0.6" stop-color="#05DA73"/>
<stop offset="0.786666" stop-color="#20BDC6"/>
<stop offset="1" stop-color="#8F7AFF"/>
</linearGradient>
</defs>
</svg>
