<svg width="100" height="101" viewBox="0 0 100 101" fill="none" xmlns="http://www.w3.org/2000/svg">
<path d="M4.37998 9.41268V31.3697H0V9.41268H4.37998ZM4.37998 0.629883V5.02128H0V0.629883H4.37998Z" fill="white"/>
<path d="M4.37998 9.41268V31.3697H0V9.41268H4.37998ZM4.37998 0.629883V5.02128H0V0.629883H4.37998Z" fill="white"/>
<path d="M30.0011 22.5869V26.9783H25.6212V22.5869H30.0011ZM16.8612 5.02128V31.3697H15.591C14.6858 31.3697 13.9412 31.0769 13.3572 30.4914C12.7732 29.9059 12.4812 29.1593 12.4812 28.2518V5.02128H16.8612ZM25.6212 26.9783V31.3697H16.8612V26.9783H25.6212ZM25.6212 9.41268V13.8041H8.10124V9.41268H25.6212Z" fill="white"/>
<path d="M30.0011 22.5869V26.9783H25.6212V22.5869H30.0011ZM16.8612 5.02128V31.3697H15.591C14.6858 31.3697 13.9412 31.0769 13.3572 30.4914C12.7732 29.9059 12.4812 29.1593 12.4812 28.2518V5.02128H16.8612ZM25.6212 26.9783V31.3697H16.8612V26.9783H25.6212ZM25.6212 9.41268V13.8041H8.10124V9.41268H25.6212Z" fill="white"/>
<path d="M49.9437 9.41268H54.3237V31.3697H49.9437V9.41268ZM32.4238 17.9759C32.4238 16.1022 32.9056 14.4921 33.8692 13.1454C34.8328 11.7987 36.1468 10.774 37.8112 10.0714C39.5048 9.33949 41.3736 8.97354 43.4175 8.97354C45.4323 8.97354 47.2719 9.33949 48.9363 10.0714C50.6007 10.774 51.9147 11.7987 52.8783 13.1454C53.8419 14.4921 54.3237 16.1022 54.3237 17.9759V22.3234C54.3237 24.1971 53.8419 25.8219 52.8783 27.1978C51.9147 28.5445 50.6007 29.5838 48.9363 30.3157C47.2719 31.0184 45.4323 31.3697 43.4175 31.3697C41.3736 31.3697 39.5048 31.0184 37.8112 30.3157C36.1468 29.5838 34.8328 28.5445 33.8692 27.1978C32.9056 25.8219 32.4238 24.1971 32.4238 22.3234V17.9759ZM36.8038 21.7086C36.8038 23.6701 37.4754 25.0461 38.8186 25.8365C40.191 26.5977 41.7239 26.9783 43.4175 26.9783C45.0527 26.9783 46.5419 26.5977 47.8851 25.8365C49.2283 25.0461 49.8999 23.6701 49.8999 21.7086V18.5907C49.8999 16.6292 49.2283 15.2679 47.8851 14.5067C46.5711 13.7455 45.0819 13.3649 43.4175 13.3649C41.7239 13.3649 40.191 13.7455 38.8186 14.5067C37.4754 15.2679 36.8038 16.6292 36.8038 18.5907V21.7086ZM45.5637 17.9759V22.3673H41.1838V17.9759H45.5637Z" fill="white"/>
<path d="M49.9437 9.41268H54.3237V31.3697H49.9437V9.41268ZM32.4238 17.9759C32.4238 16.1022 32.9056 14.4921 33.8692 13.1454C34.8328 11.7987 36.1468 10.774 37.8112 10.0714C39.5048 9.33949 41.3736 8.97354 43.4175 8.97354C45.4323 8.97354 47.2719 9.33949 48.9363 10.0714C50.6007 10.774 51.9147 11.7987 52.8783 13.1454C53.8419 14.4921 54.3237 16.1022 54.3237 17.9759V22.3234C54.3237 24.1971 53.8419 25.8219 52.8783 27.1978C51.9147 28.5445 50.6007 29.5838 48.9363 30.3157C47.2719 31.0184 45.4323 31.3697 43.4175 31.3697C41.3736 31.3697 39.5048 31.0184 37.8112 30.3157C36.1468 29.5838 34.8328 28.5445 33.8692 27.1978C32.9056 25.8219 32.4238 24.1971 32.4238 22.3234V17.9759ZM36.8038 21.7086C36.8038 23.6701 37.4754 25.0461 38.8186 25.8365C40.191 26.5977 41.7239 26.9783 43.4175 26.9783C45.0527 26.9783 46.5419 26.5977 47.8851 25.8365C49.2283 25.0461 49.8999 23.6701 49.8999 21.7086V18.5907C49.8999 16.6292 49.2283 15.2679 47.8851 14.5067C46.5711 13.7455 45.0819 13.3649 43.4175 13.3649C41.7239 13.3649 40.191 13.7455 38.8186 14.5067C37.4754 15.2679 36.8038 16.6292 36.8038 18.5907V21.7086ZM45.5637 17.9759V22.3673H41.1838V17.9759H45.5637Z" fill="white"/>
<path d="M78.1001 19.0738C78.1001 17.1123 77.4285 15.7509 76.0853 14.9898C74.7421 14.1993 73.2529 13.8041 71.6177 13.8041C69.9242 13.8041 68.3912 14.1993 67.0188 14.9898C65.6756 15.7509 65.004 17.1123 65.004 19.0738V22.1917L60.624 22.8064V18.459C60.624 16.5853 61.1058 14.9751 62.0694 13.6284C63.033 12.2525 64.347 11.2132 66.0114 10.5105C67.705 9.77863 69.5738 9.41268 71.6177 9.41268C73.6325 9.41268 75.4575 9.77863 77.0927 10.5105C78.7571 11.2132 80.0711 12.2525 81.0347 13.6284C81.9983 14.9751 82.4801 16.5853 82.4801 18.459V31.3697H78.1001V19.0738ZM65.004 17.7563V31.3697H60.624V17.7563H65.004ZM100 26.9783V31.3697H95.62V26.9783H100ZM95.5762 19.0738C95.5762 17.1123 94.9046 15.7509 93.5614 14.9898C92.2182 14.1993 90.729 13.8041 89.0939 13.8041C87.4003 13.8041 85.8673 14.1993 84.4949 14.9898C83.1225 15.7509 82.4363 17.1123 82.4363 19.0738V22.1917L78.1001 22.8064V18.459C78.1001 16.5853 78.5819 14.9751 79.5455 13.6284C80.5091 12.2525 81.8231 11.2132 83.4875 10.5105C85.1811 9.77863 87.0499 9.41268 89.0939 9.41268C91.1086 9.41268 92.9482 9.77863 94.6126 10.5105C96.277 11.2132 97.591 12.2525 98.5546 13.6284C99.5182 14.9751 100 16.5853 100 18.459V26.9783H95.5762V19.0738ZM61.9818 9.41268V13.8041H57.6018V9.41268H61.9818Z" fill="white"/>
<path d="M78.1001 19.0738C78.1001 17.1123 77.4285 15.7509 76.0853 14.9898C74.7421 14.1993 73.2529 13.8041 71.6177 13.8041C69.9242 13.8041 68.3912 14.1993 67.0188 14.9898C65.6756 15.7509 65.004 17.1123 65.004 19.0738V22.1917L60.624 22.8064V18.459C60.624 16.5853 61.1058 14.9751 62.0694 13.6284C63.033 12.2525 64.347 11.2132 66.0114 10.5105C67.705 9.77863 69.5738 9.41268 71.6177 9.41268C73.6325 9.41268 75.4575 9.77863 77.0927 10.5105C78.7571 11.2132 80.0711 12.2525 81.0347 13.6284C81.9983 14.9751 82.4801 16.5853 82.4801 18.459V31.3697H78.1001V19.0738ZM65.004 17.7563V31.3697H60.624V17.7563H65.004ZM100 26.9783V31.3697H95.62V26.9783H100ZM95.5762 19.0738C95.5762 17.1123 94.9046 15.7509 93.5614 14.9898C92.2182 14.1993 90.729 13.8041 89.0939 13.8041C87.4003 13.8041 85.8673 14.1993 84.4949 14.9898C83.1225 15.7509 82.4363 17.1123 82.4363 19.0738V22.1917L78.1001 22.8064V18.459C78.1001 16.5853 78.5819 14.9751 79.5455 13.6284C80.5091 12.2525 81.8231 11.2132 83.4875 10.5105C85.1811 9.77863 87.0499 9.41268 89.0939 9.41268C91.1086 9.41268 92.9482 9.77863 94.6126 10.5105C96.277 11.2132 97.591 12.2525 98.5546 13.6284C99.5182 14.9751 100 16.5853 100 18.459V26.9783H95.5762V19.0738ZM61.9818 9.41268V13.8041H57.6018V9.41268H61.9818Z" fill="white"/>
<path d="M12.528 93.896V95H0.984V94.136L8.088 87.08C9.016 86.152 9.64 85.36 9.96 84.704C10.296 84.032 10.464 83.344 10.464 82.64C10.464 81.568 10.096 80.728 9.36 80.12C8.64 79.512 7.592 79.208 6.216 79.208C5.16 79.208 4.232 79.368 3.432 79.688C2.648 80.008 1.968 80.496 1.392 81.152L0.528 80.384C1.168 79.648 1.976 79.08 2.952 78.68C3.944 78.28 5.064 78.08 6.312 78.08C7.96 78.08 9.272 78.48 10.248 79.28C11.224 80.08 11.712 81.16 11.712 82.52C11.712 83.384 11.52 84.208 11.136 84.992C10.752 85.776 10.032 86.688 8.976 87.728L2.784 93.896H12.528ZM20.8457 95.12C19.5657 95.12 18.4217 94.776 17.4137 94.088C16.4217 93.384 15.6457 92.392 15.0857 91.112C14.5417 89.832 14.2697 88.328 14.2697 86.6C14.2697 84.872 14.5417 83.368 15.0857 82.088C15.6457 80.808 16.4217 79.824 17.4137 79.136C18.4217 78.432 19.5657 78.08 20.8457 78.08C22.1257 78.08 23.2617 78.432 24.2537 79.136C25.2617 79.824 26.0377 80.808 26.5817 82.088C27.1417 83.368 27.4217 84.872 27.4217 86.6C27.4217 88.328 27.1417 89.832 26.5817 91.112C26.0377 92.392 25.2617 93.384 24.2537 94.088C23.2617 94.776 22.1257 95.12 20.8457 95.12ZM20.8457 93.992C21.9017 93.992 22.8297 93.704 23.6297 93.128C24.4457 92.536 25.0777 91.688 25.5257 90.584C25.9737 89.464 26.1977 88.136 26.1977 86.6C26.1977 85.064 25.9737 83.744 25.5257 82.64C25.0777 81.52 24.4457 80.672 23.6297 80.096C22.8297 79.504 21.9017 79.208 20.8457 79.208C19.7897 79.208 18.8537 79.504 18.0377 80.096C17.2377 80.672 16.6137 81.52 16.1657 82.64C15.7177 83.744 15.4937 85.064 15.4937 86.6C15.4937 88.136 15.7177 89.464 16.1657 90.584C16.6137 91.688 17.2377 92.536 18.0377 93.128C18.8537 93.704 19.7897 93.992 20.8457 93.992ZM40.7711 93.896V95H29.2271V94.136L36.3311 87.08C37.2591 86.152 37.8831 85.36 38.2031 84.704C38.5391 84.032 38.7071 83.344 38.7071 82.64C38.7071 81.568 38.3391 80.728 37.6031 80.12C36.8831 79.512 35.8351 79.208 34.4591 79.208C33.4031 79.208 32.4751 79.368 31.6751 79.688C30.8911 80.008 30.2111 80.496 29.6351 81.152L28.7711 80.384C29.4111 79.648 30.2191 79.08 31.1951 78.68C32.1871 78.28 33.3071 78.08 34.5551 78.08C36.2031 78.08 37.5151 78.48 38.4911 79.28C39.4671 80.08 39.9551 81.16 39.9551 82.52C39.9551 83.384 39.7631 84.208 39.3791 84.992C38.9951 85.776 38.2751 86.688 37.2191 87.728L31.0271 93.896H40.7711ZM55.9898 90.344H52.4618V95H51.2618V90.344H41.6858V89.456L50.8058 78.2H52.1738L43.2218 89.264H51.2858V85.16H52.4618V89.264H55.9898V90.344Z" fill="white"/>
</svg>
