<svg width="40" height="40" viewBox="0 0 40 40" fill="none" xmlns="http://www.w3.org/2000/svg">
<path d="M32.475 33.5896L22.0383 23.1529C21.205 23.8629 20.2467 24.4124 19.1633 24.8013C18.08 25.1901 16.9911 25.3846 15.8967 25.3846C13.2278 25.3846 10.9689 24.4607 9.12001 22.6129C7.27112 20.7651 6.34668 18.5068 6.34668 15.8379C6.34668 13.169 7.27001 10.9096 9.11668 9.05959C10.9633 7.20959 13.2211 6.28348 15.89 6.28125C18.5589 6.27903 20.8189 7.20348 22.67 9.05459C24.5211 10.9057 25.4467 13.1651 25.4467 15.8329C25.4467 16.9907 25.2417 18.1113 24.8317 19.1946C24.4217 20.2779 23.8828 21.2046 23.215 21.9746L33.6517 32.4096L32.475 33.5896ZM15.8983 23.7163C18.1095 23.7163 19.9761 22.9551 21.4983 21.4329C23.0206 19.9107 23.7817 18.0435 23.7817 15.8313C23.7817 13.619 23.0206 11.7524 21.4983 10.2313C19.9761 8.71014 18.1095 7.94903 15.8983 7.94792C13.6872 7.94681 11.82 8.70792 10.2967 10.2313C8.77335 11.7546 8.01224 13.6213 8.01335 15.8313C8.01446 18.0413 8.77557 19.9079 10.2967 21.4313C11.8178 22.9546 13.6845 23.7157 15.8967 23.7146" fill="#1E1D1C"/>
</svg>
