<svg width="73" height="60" viewBox="0 0 73 60" fill="none" xmlns="http://www.w3.org/2000/svg">
<path d="M50.4498 35.4163C50.4498 35.7479 50.3181 36.0658 50.0837 36.3002C49.8493 36.5346 49.5313 36.6663 49.1998 36.6663H23.7998C23.4683 36.6663 23.1503 36.5346 22.9159 36.3002C22.6815 36.0658 22.5498 35.7479 22.5498 35.4163C22.5498 28.583 30.0498 23.283 36.4998 23.283C42.9498 23.283 50.4498 28.583 50.4498 35.4163ZM44.9998 11.8497C44.9965 13.5301 44.4952 15.1718 43.5592 16.5675C42.6232 17.9631 41.2945 19.05 39.7411 19.6908C38.1876 20.3315 36.4791 20.4975 34.8313 20.1676C33.1836 19.8378 31.6706 19.0269 30.4835 17.8375C29.2964 16.6481 28.4886 15.1335 28.1619 13.4852C27.8353 11.8368 28.0046 10.1286 28.6484 8.57636C29.2923 7.02416 30.3817 5.69762 31.7792 4.76437C33.1766 3.83111 34.8194 3.33301 36.4998 3.33301C38.7557 3.33742 40.9176 4.23666 42.5112 5.83337C44.1048 7.43007 44.9998 9.5938 44.9998 11.8497Z" fill="white"/>
<path d="M1.616 56V47.6H9.168V56H8.032V48.288L8.32 48.592H2.464L2.752 48.288V56H1.616ZM16.4133 56.08C15.6879 56.08 15.0319 55.9147 14.4453 55.584C13.8586 55.2427 13.3893 54.7573 13.0373 54.128C12.6959 53.488 12.5253 52.7093 12.5253 51.792C12.5253 50.8747 12.6959 50.1013 13.0373 49.472C13.3786 48.832 13.8426 48.3467 14.4293 48.016C15.0159 47.6853 15.6773 47.52 16.4133 47.52C17.2133 47.52 17.9279 47.7013 18.5573 48.064C19.1973 48.416 19.6986 48.9173 20.0613 49.568C20.4239 50.208 20.6053 50.9493 20.6053 51.792C20.6053 52.6453 20.4239 53.392 20.0613 54.032C19.6986 54.672 19.1973 55.1733 18.5573 55.536C17.9279 55.8987 17.2133 56.08 16.4133 56.08ZM12.0773 59.104V47.6H13.1653V50.128L13.0533 51.808L13.2133 53.504V59.104H12.0773ZM16.3333 55.072C16.9306 55.072 17.4639 54.9387 17.9333 54.672C18.4026 54.3947 18.7759 54.0107 19.0533 53.52C19.3306 53.0187 19.4693 52.4427 19.4693 51.792C19.4693 51.1413 19.3306 50.5707 19.0533 50.08C18.7759 49.5893 18.4026 49.2053 17.9333 48.928C17.4639 48.6507 16.9306 48.512 16.3333 48.512C15.7359 48.512 15.1973 48.6507 14.7173 48.928C14.2479 49.2053 13.8746 49.5893 13.5973 50.08C13.3306 50.5707 13.1973 51.1413 13.1973 51.792C13.1973 52.4427 13.3306 53.0187 13.5973 53.52C13.8746 54.0107 14.2479 54.3947 14.7173 54.672C15.1973 54.9387 15.7359 55.072 16.3333 55.072ZM26.182 56.08C25.3713 56.08 24.6407 55.8987 23.99 55.536C23.35 55.1627 22.8433 54.656 22.47 54.016C22.0967 53.3653 21.91 52.624 21.91 51.792C21.91 50.9493 22.0967 50.208 22.47 49.568C22.8433 48.928 23.35 48.4267 23.99 48.064C24.63 47.7013 25.3607 47.52 26.182 47.52C27.014 47.52 27.75 47.7013 28.39 48.064C29.0407 48.4267 29.5473 48.928 29.91 49.568C30.2833 50.208 30.47 50.9493 30.47 51.792C30.47 52.624 30.2833 53.3653 29.91 54.016C29.5473 54.656 29.0407 55.1627 28.39 55.536C27.7393 55.8987 27.0033 56.08 26.182 56.08ZM26.182 55.072C26.79 55.072 27.3287 54.9387 27.798 54.672C28.2673 54.3947 28.6353 54.0107 28.902 53.52C29.1793 53.0187 29.318 52.4427 29.318 51.792C29.318 51.1307 29.1793 50.5547 28.902 50.064C28.6353 49.5733 28.2673 49.1947 27.798 48.928C27.3287 48.6507 26.7953 48.512 26.198 48.512C25.6007 48.512 25.0673 48.6507 24.598 48.928C24.1287 49.1947 23.7553 49.5733 23.478 50.064C23.2007 50.5547 23.062 51.1307 23.062 51.792C23.062 52.4427 23.2007 53.0187 23.478 53.52C23.7553 54.0107 24.1287 54.3947 24.598 54.672C25.0673 54.9387 25.5953 55.072 26.182 55.072ZM37.2979 56.096C37.2979 56.096 37.2765 56.096 37.2339 56.096C37.1912 56.096 37.1485 56.096 37.1059 56.096C37.0739 56.096 37.0472 56.096 37.0259 56.096C35.3619 56.0853 34.0659 55.7067 33.1379 54.96C32.2099 54.2133 31.7459 53.152 31.7459 51.776C31.7459 50.4213 32.2099 49.376 33.1379 48.64C34.0765 47.8933 35.3939 47.5147 37.0899 47.504C37.1005 47.504 37.1219 47.504 37.1539 47.504C37.1965 47.504 37.2339 47.504 37.2659 47.504C37.2979 47.504 37.3192 47.504 37.3299 47.504C39.0365 47.5147 40.3645 47.8933 41.3139 48.64C42.2632 49.376 42.7379 50.4213 42.7379 51.776C42.7379 53.1627 42.2579 54.2293 41.2979 54.976C40.3485 55.7227 39.0152 56.096 37.2979 56.096ZM37.2819 55.104C38.2312 55.104 39.0259 54.976 39.6659 54.72C40.3059 54.4533 40.7912 54.0747 41.1219 53.584C41.4525 53.0933 41.6179 52.4907 41.6179 51.776C41.6179 51.0827 41.4525 50.496 41.1219 50.016C40.7912 49.5253 40.3059 49.152 39.6659 48.896C39.0259 48.64 38.2312 48.512 37.2819 48.512C37.2712 48.512 37.2392 48.512 37.1859 48.512C37.1432 48.512 37.1165 48.512 37.1059 48.512C36.1779 48.512 35.3992 48.6453 34.7699 48.912C34.1405 49.168 33.6659 49.536 33.3459 50.016C33.0259 50.496 32.8659 51.0827 32.8659 51.776C32.8659 52.48 33.0259 53.0773 33.3459 53.568C33.6765 54.0587 34.1565 54.4373 34.7859 54.704C35.4152 54.96 36.1885 55.0933 37.1059 55.104C37.1272 55.104 37.1592 55.104 37.2019 55.104C37.2445 55.104 37.2712 55.104 37.2819 55.104ZM36.6739 59.104V44.128H37.7779V59.104H36.6739ZM44.8204 56V47.6H45.9564V54.272L51.5724 47.6H52.5804V56H51.4444V49.312L45.8444 56H44.8204ZM53.98 55.984L54.06 55.008C54.1347 55.0187 54.204 55.0347 54.268 55.056C54.3427 55.0667 54.4067 55.072 54.46 55.072C54.8013 55.072 55.0733 54.944 55.276 54.688C55.4893 54.432 55.6493 54.0907 55.756 53.664C55.8627 53.2373 55.9373 52.7573 55.98 52.224C56.0227 51.68 56.06 51.136 56.092 50.592L56.236 47.6H62.396V56H61.26V48.256L61.548 48.592H56.972L57.244 48.24L57.116 50.672C57.084 51.3973 57.0253 52.0907 56.94 52.752C56.8653 53.4133 56.7427 53.9947 56.572 54.496C56.412 54.9973 56.188 55.392 55.9 55.68C55.612 55.9573 55.244 56.096 54.796 56.096C54.668 56.096 54.5347 56.0853 54.396 56.064C54.268 56.0427 54.1293 56.016 53.98 55.984ZM68.9214 50.56C69.9774 50.5707 70.7774 50.8053 71.3214 51.264C71.876 51.7227 72.1534 52.384 72.1534 53.248C72.1534 54.144 71.8547 54.832 71.2574 55.312C70.6707 55.792 69.8174 56.0267 68.6974 56.016L65.3054 56V47.6H66.4414V50.528L68.9214 50.56ZM68.6334 55.152C69.412 55.1627 69.9987 55.008 70.3934 54.688C70.7987 54.3573 71.0014 53.8773 71.0014 53.248C71.0014 52.6187 70.804 52.16 70.4094 51.872C70.0147 51.5733 69.4227 51.4187 68.6334 51.408L66.4414 51.376V55.12L68.6334 55.152Z" fill="#8A8989"/>
</svg>
